<svg id="그룹_2692" data-name="그룹 2692" xmlns="http://www.w3.org/2000/svg" xmlns:xlink="http://www.w3.org/1999/xlink" width="22.486" height="22.454" viewBox="0 0 22.486 22.454">
  <defs>
    <clipPath id="clip-path">
      <rect id="사각형_3690" data-name="사각형 3690" width="22.486" height="22.454" fill="#eee"/>
    </clipPath>
  </defs>
  <g id="그룹_2691" data-name="그룹 2691" clip-path="url(#clip-path)">
    <path id="패스_1387" data-name="패스 1387" d="M3.7,17.547a8.436,8.436,0,0,1-2.239-2.222,8.319,8.319,0,0,1,5.1-12.849,8.092,8.092,0,0,1,8.4,3.042c.267.324.419.344.711.051Q18.3,2.945,20.924.318A.91.91,0,0,1,21.665,0a.809.809,0,0,1,.729.518.817.817,0,0,1-.162.927c-.322.34-.659.665-.99,1Q11.42,12.264,1.593,22.08a1.365,1.365,0,0,1-.61.354.794.794,0,0,1-.89-.457.863.863,0,0,1,.171-1c.6-.608,1.207-1.211,1.812-1.815.535-.534,1.071-1.066,1.628-1.619M14.018,7.188a6.607,6.607,0,0,0-12.238,2.9,6.466,6.466,0,0,0,3.168,6.153l9.071-9.056" transform="translate(0 0)" fill="#eee"/>
    <path id="패스_1388" data-name="패스 1388" d="M116.632,107.529q-1.768,0-3.536,0a.869.869,0,1,1,0-1.727c2.259,0,4.517.006,6.776,0a4.836,4.836,0,0,0,4.782-3.735,4.761,4.761,0,0,0-1.581-4.891c-.08-.072-.168-.135-.25-.206a.858.858,0,0,1-.131-1.208.848.848,0,0,1,1.205-.14,6.475,6.475,0,0,1,2.257,3.092,6.612,6.612,0,0,1-5.283,8.744,8.708,8.708,0,0,1-1.238.07c-1,.01-2,0-3,0" transform="translate(-104.038 -88.547)" fill="#eee"/>
  </g>
</svg>
