<svg xmlns="http://www.w3.org/2000/svg" xmlns:xlink="http://www.w3.org/1999/xlink" width="580.314" height="690.28" viewBox="0 0 29.157 34.64">
  <defs>
    <clipPath id="clip-path">
      <rect id="사각형_47" data-name="사각형 47" width="29.157" height="34.64" fill="#00ffff"/>
    </clipPath>
  </defs>
  <g id="그룹_1501" data-name="그룹 1501" clip-path="url(#clip-path)">
    <path id="패스_508" data-name="패스 508" d="M14.568,34.639C10.945,31.117,7.2,27.761,3.8,24.091A13.41,13.41,0,0,1,.992,9.59,13.656,13.656,0,0,1,12.734.129,14.355,14.355,0,0,1,29.062,13.015,13.513,13.513,0,0,1,25.19,24.381C21.8,27.82,18.273,31.12,14.8,34.479a1.906,1.906,0,0,1-.237.16M14.4,31.751c.421-.382.578-.515.723-.658,2.663-2.571,5.338-5.134,7.983-7.723a11.954,11.954,0,0,0,3.664-10.652A12.258,12.258,0,0,0,12.31,2.419a11.76,11.76,0,0,0-9.482,8.706,11.7,11.7,0,0,0,3.3,12.252c2.121,2.106,4.307,4.15,6.434,6.25.652.643,1.206,1.386,1.837,2.124" transform="translate(0.001 0.002)" fill="#00ffff"/>
    <path id="패스_509" data-name="패스 509" d="M19.522,17.341H18.133v2.148H15.914V17.371H7.1V19.5H4.877v-2.13H3.488V8.526H1.595V6.3H3.473c0-.435-.006-.794,0-1.155A3.279,3.279,0,0,1,6.72,1.878q4.759-.04,9.521,0a3.281,3.281,0,0,1,3.247,3.267c.009.344,0,.687,0,1.108h1.89V8.472H19.522ZM17.277,8.466c0-1.132.015-2.186-.006-3.244a1.065,1.065,0,0,0-1.123-1.135q-4.683-.022-9.37,0a.965.965,0,0,0-1.055.895C5.656,6.138,5.7,7.3,5.7,8.466ZM5.715,15.072H17.247V10.744H5.715Z" transform="translate(3.13 3.647)" fill="#00ffff"/>
    <rect id="사각형_45" data-name="사각형 45" width="2.133" height="2.145" transform="translate(10.226 15.481)" fill="#00ffff"/>
    <rect id="사각형_46" data-name="사각형 46" width="2.127" height="2.13" transform="translate(16.852 15.49)" fill="#00ffff"/>
  </g>
</svg>
