<svg id="그룹_2985" data-name="그룹 2985" xmlns="http://www.w3.org/2000/svg" xmlns:xlink="http://www.w3.org/1999/xlink" width="42" height="42" viewBox="0 0 42 42">
  <defs>
    <clipPath id="clip-path">
      <rect id="사각형_3731" data-name="사각형 3731" width="25.337" height="23.758" fill="#eee"/>
    </clipPath>
  </defs>
  <rect id="사각형_3736" data-name="사각형 3736" width="42" height="42" rx="6" fill="#333544"/>
  <g id="그룹_2726" data-name="그룹 2726" transform="translate(8.315 9.503)">
    <g id="그룹_2722" data-name="그룹 2722" transform="translate(0 0)" clip-path="url(#clip-path)">
      <path id="패스_1393" data-name="패스 1393" d="M0,11.286a5.491,5.491,0,0,1,.433-.558q4.8-4.807,9.6-9.605a3.654,3.654,0,0,1,4.94-.3,5.761,5.761,0,0,1,.434.4q4.768,4.766,9.534,9.533c.052.052.106.1.156.159a.79.79,0,1,1-1.114,1.12c-.2-.187-.383-.385-.626-.631v.317q0,4.849,0,9.7a2.259,2.259,0,0,1-1.573,2.218,2.528,2.528,0,0,1-.753.114q-8.362.009-16.723,0a2.268,2.268,0,0,1-2.328-2.333q-.005-4.836,0-9.673v-.332c-.182.181-.325.321-.467.463-.6.595-1.109.528-1.513-.2v-.4M16.628,22.174h.244q2.041,0,4.082,0a.718.718,0,0,0,.82-.816q0-5.665-.006-11.33a.53.53,0,0,0-.142-.338q-3.7-3.716-7.413-7.421a2.077,2.077,0,0,0-3.1.009q-3.7,3.7-7.4,7.4a.563.563,0,0,0-.151.358q-.012,5.653-.006,11.306c0,.568.262.828.833.828H8.479c.071,0,.143-.008.231-.014v-.283q0-2.932,0-5.863a2.471,2.471,0,0,1,2.542-2.549q1.41,0,2.82,0a2.472,2.472,0,0,1,2.554,2.562q0,2.449,0,4.9v1.249m-1.584-.011c0-2.064,0-4.1,0-6.136a.9.9,0,0,0-.985-.979q-1.372,0-2.745,0a.905.905,0,0,0-1.02,1.018q0,2.918,0,5.836v.262Z" transform="translate(0 0)" fill="#eee"/>
    </g>
  </g>
</svg>
