<svg xmlns="http://www.w3.org/2000/svg" xmlns:xlink="http://www.w3.org/1999/xlink" width="24.103" height="28.453" viewBox="0 0 24.103 28.453">
  <defs>
    <clipPath id="clip-path">
      <rect id="사각형_72" data-name="사각형 72" width="23.978" height="28.328" fill="#eee" stroke="#eee" stroke-width="0.25"/>
    </clipPath>
  </defs>
  <g id="그룹_1582" data-name="그룹 1582" transform="translate(0.125 0.125)">
    <path id="패스_524" data-name="패스 524" d="M6.153,1.28h9.734V3.035H6.153ZM4.824,0V3.1H1.777V24.618H0V25.8H9.791V24.608H3.057V4.359h16v8.536h1.186V3.072H17.182V0Z" fill="#eee"/>
    <path id="패스_524_-_윤곽선" data-name="패스 524 - 윤곽선" d="M4.7-.125H17.307V2.947h3.064V13.02H18.935V4.484H3.182v20H9.916v1.441H-.125V24.493H1.652V2.979H4.7Zm12.359.25H4.949v3.1H1.9V24.743H.125v.931H9.666v-.941H2.932V4.234H19.185V12.77h.936V3.2H17.057ZM6.028,1.155h9.984v2H6.028Zm9.734.25H6.278v1.5h9.484Z" fill="#eee"/>
    <g id="그룹_1566" data-name="그룹 1566" transform="translate(0 0)">
      <g id="그룹_1565" data-name="그룹 1565" clip-path="url(#clip-path)">
        <path id="패스_525" data-name="패스 525" d="M13.094,9.449a3.7,3.7,0,0,1-3.732,3.677A3.754,3.754,0,0,1,5.707,9.409,3.75,3.75,0,0,1,9.458,5.732a3.705,3.705,0,0,1,3.635,3.717M9.4,11.878A2.449,2.449,0,1,0,6.95,9.432,2.434,2.434,0,0,0,9.4,11.878" transform="translate(8.396 8.433)" fill="#eee"/>
        <path id="패스_525_-_윤곽선" data-name="패스 525 - 윤곽선" d="M9.4,13.251H9.361A3.869,3.869,0,0,1,5.582,9.408a3.876,3.876,0,0,1,3.841-3.8H9.46A3.822,3.822,0,0,1,9.4,13.251Zm.025-7.394A3.639,3.639,0,0,0,5.832,9.41,3.615,3.615,0,0,0,9.363,13H9.4a3.572,3.572,0,0,0,.059-7.144ZM9.409,12H9.4a2.574,2.574,0,1,1,.019-5.148h.035a2.577,2.577,0,0,1,1.83.777A2.545,2.545,0,0,1,12,9.458,2.558,2.558,0,0,1,9.409,12Zm.009-4.9A2.324,2.324,0,1,0,9.4,11.753h.009A2.331,2.331,0,0,0,11.1,7.807a2.329,2.329,0,0,0-1.653-.7Z" transform="translate(8.396 8.433)" fill="#eee"/>
        <path id="패스_526" data-name="패스 526" d="M4.7,14.755a19.134,19.134,0,0,1,.151-2.612,3.534,3.534,0,0,1,3.475-2.9c1.673-.03,3.348-.025,5.019,0a3.676,3.676,0,0,1,3.717,3.635c.012.269.007.539.007.808,0,1.169,0,1.169-1.248,1.008,0-.544,0-1.095,0-1.648a2.491,2.491,0,0,0-2.471-2.58c-1.636-.04-3.272-.037-4.905,0a2.461,2.461,0,0,0-2.459,2.531c-.01.573,0,1.149,0,1.767Z" transform="translate(6.912 13.565)" fill="#eee"/>
        <path id="패스_526_-_윤곽선" data-name="패스 526 - 윤곽선" d="M16.582,14.888a6.917,6.917,0,0,1-.779-.076l-.109-.014v-.11q0-.271,0-.544c0-.361,0-.734,0-1.1a2.354,2.354,0,0,0-2.349-2.456c-.8-.019-1.621-.029-2.45-.029-.794,0-1.618.009-2.449.027A2.336,2.336,0,0,0,6.108,12.99c-.007.378,0,.752,0,1.149,0,.2,0,.406,0,.615v.125H4.567l.006-.131c.013-.271.017-.545.021-.809a10.648,10.648,0,0,1,.132-1.82,3.664,3.664,0,0,1,3.6-3c.8-.014,1.62-.021,2.513-.021.775,0,1.6.005,2.51.016a3.877,3.877,0,0,1,2.692,1.079,3.959,3.959,0,0,1,1.148,2.676c.01.212.009.427.008.635q0,.089,0,.179C17.191,14.534,17.191,14.888,16.582,14.888Zm-.638-.31a5.671,5.671,0,0,0,.638.06c.339,0,.36-.054.36-.958q0-.09,0-.18c0-.2,0-.416-.008-.622a3.534,3.534,0,0,0-3.593-3.516c-.913-.011-1.733-.016-2.507-.016-.891,0-1.712.007-2.508.021a3.416,3.416,0,0,0-3.354,2.8,10.466,10.466,0,0,0-.127,1.778c0,.224-.007.455-.016.686h1.03q0-.248,0-.489c0-.4,0-.774,0-1.155a2.577,2.577,0,0,1,2.581-2.653c.833-.018,1.659-.027,2.455-.027.832,0,1.658.01,2.457.029a2.624,2.624,0,0,1,2.593,2.7c0,.37,0,.744,0,1.106Q15.944,14.362,15.944,14.578Z" transform="translate(6.912 13.565)" fill="#eee"/>
        <rect id="사각형_66" data-name="사각형 66" width="4.268" height="1.179" transform="translate(5.521 7.396)" fill="#eee"/>
        <path id="사각형_66_-_윤곽선" data-name="사각형 66 - 윤곽선" d="M-.125-.125H4.393V1.3H-.125Zm4.268.25H.125v.929H4.143Z" transform="translate(5.521 7.396)" fill="#eee"/>
        <rect id="사각형_67" data-name="사각형 67" width="4.246" height="1.169" transform="translate(12.331 7.391)" fill="#eee"/>
        <path id="사각형_67_-_윤곽선" data-name="사각형 67 - 윤곽선" d="M-.125-.125h4.5V1.294h-4.5Zm4.246.25h-4v.919h4Z" transform="translate(12.331 7.391)" fill="#eee"/>
        <rect id="사각형_68" data-name="사각형 68" width="4.263" height="1.166" transform="translate(5.533 20.35)" fill="#eee"/>
        <path id="사각형_68_-_윤곽선" data-name="사각형 68 - 윤곽선" d="M-.125-.125H4.388V1.291H-.125Zm4.263.25H.125v.916H4.138Z" transform="translate(5.533 20.35)" fill="#eee"/>
        <rect id="사각형_69" data-name="사각형 69" width="4.238" height="1.134" transform="translate(5.54 11.741)" fill="#eee"/>
        <path id="사각형_69_-_윤곽선" data-name="사각형 69 - 윤곽선" d="M-.125-.125H4.363V1.259H-.125Zm4.238.25H.125v.884H4.113Z" transform="translate(5.54 11.741)" fill="#eee"/>
        <rect id="사각형_70" data-name="사각형 70" width="4.263" height="1.132" transform="translate(12.326 11.751)" fill="#eee"/>
        <path id="사각형_70_-_윤곽선" data-name="사각형 70 - 윤곽선" d="M-.125-.125H4.388V1.257H-.125Zm4.263.25H.125v.882H4.138Z" transform="translate(12.326 11.751)" fill="#eee"/>
        <rect id="사각형_71" data-name="사각형 71" width="4.258" height="1.144" transform="translate(5.531 16.026)" fill="#eee"/>
        <path id="사각형_71_-_윤곽선" data-name="사각형 71 - 윤곽선" d="M-.125-.125H4.383V1.269H-.125Zm4.258.25H.125v.894H4.133Z" transform="translate(5.531 16.026)" fill="#eee"/>
      </g>
    </g>
  </g>
</svg>
