<svg id="그룹_1539" data-name="그룹 1539" xmlns="http://www.w3.org/2000/svg" xmlns:xlink="http://www.w3.org/1999/xlink" width="36.694" height="31.794" viewBox="0 0 36.694 31.794">
  <defs>
    <clipPath id="clip-path">
      <rect id="사각형_52" data-name="사각형 52" width="36.694" height="31.794" fill="#eee"/>
    </clipPath>
  </defs>
  <g id="그룹_1509" data-name="그룹 1509" clip-path="url(#clip-path)">
    <path id="패스_514" data-name="패스 514" d="M17.424,20.137H16.077v2.087H13.92V20.168H5.349v2.064H3.19v-2.07H1.843V11.568H0V9.412H1.828c0-.423-.009-.774,0-1.123A3.2,3.2,0,0,1,4.981,5.108q4.625-.039,9.253,0A3.19,3.19,0,0,1,17.39,8.286c.009.334,0,.668,0,1.074h1.834v2.159h-1.8Zm-2.182-8.623c0-1.1.014-2.128-.006-3.153a1.035,1.035,0,0,0-1.088-1.106q-4.556-.017-9.109,0a.942.942,0,0,0-1.025.869c-.066,1.126-.02,2.257-.02,3.389ZM4,17.934H15.213V13.728H4Z" transform="translate(0 9.561)" fill="#eee"/>
    <rect id="사각형_50" data-name="사각형 50" width="2.073" height="2.084" transform="translate(5.346 24.349)" fill="#eee"/>
    <rect id="사각형_51" data-name="사각형 51" width="2.067" height="2.07" transform="translate(11.787 24.354)" fill="#eee"/>
    <path id="패스_515" data-name="패스 515" d="M15.962,9.9c-.461-.792-.907-1.5-1.293-2.237a6.223,6.223,0,0,1-.953-3.429A4.329,4.329,0,0,1,16.488.392a4.255,4.255,0,0,1,4.716.769,4.152,4.152,0,0,1,1.4,4.506,13.381,13.381,0,0,1-3.161,5.4,1.943,1.943,0,0,1-1.555.642c-1.6-.029-3.21-.023-4.817,0a3.876,3.876,0,0,0-.846,7.641,6.061,6.061,0,0,0,1.255.107c1.385.023,2.773-.046,4.152.06a5.673,5.673,0,0,1-.337,11.315c-2.948.055-5.9.017-8.85.012A.935.935,0,0,1,7.4,29.92c.012-.536.417-.878,1.077-.878,2.87-.006,5.741.009,8.609-.009a3.858,3.858,0,0,0,3.622-2.522,3.9,3.9,0,0,0-3.8-5.246c-1.224,0-2.447.006-3.671,0A5.684,5.684,0,1,1,13.284,9.9c.875,0,1.75,0,2.678,0M18.2,9.7a12.076,12.076,0,0,0,2.666-4.529A2.656,2.656,0,0,0,19.84,2.361a2.7,2.7,0,0,0-3.1-.072,2.6,2.6,0,0,0-1.155,2.819A12.351,12.351,0,0,0,18.2,9.7" transform="translate(13.903 -0.001)" fill="#eee"/>
    <path id="패스_516" data-name="패스 516" d="M12.65,2.182a.906.906,0,0,1-.939.884.875.875,0,0,1-.858-.893.9.9,0,0,1,.867-.9.938.938,0,0,1,.93.907" transform="translate(20.394 2.396)" fill="#eee"/>
  </g>
</svg>
