<svg id="그룹_3119" data-name="그룹 3119" xmlns="http://www.w3.org/2000/svg" xmlns:xlink="http://www.w3.org/1999/xlink" width="19.064" height="24" viewBox="0 0 19.064 24">
  <defs>
    <clipPath id="clip-path">
      <rect id="사각형_3615" data-name="사각형 3615" width="19.064" height="24" fill="aqua"/>
    </clipPath>
  </defs>
  <g id="그룹_2659" data-name="그룹 2659" clip-path="url(#clip-path)">
    <path id="패스_1381" data-name="패스 1381" d="M12.778,0c.143.133.293.258.428.4q2.774,2.9,5.546,5.809a1.048,1.048,0,0,1,.313.775q-.01,6.856-.005,13.713a3.171,3.171,0,0,1-2.5,3.226A3.4,3.4,0,0,1,15.81,24Q9.528,24,3.245,24A3.165,3.165,0,0,1,0,20.744Q0,11.986,0,3.227A3.168,3.168,0,0,1,2.391.051.591.591,0,0,0,2.49,0ZM11.971,1.12H11.71q-4.2,0-8.407,0a2.009,2.009,0,0,0-2.137,2.15q0,8.711,0,17.422a2.01,2.01,0,0,0,2.146,2.142q6.211,0,12.423,0a2.02,2.02,0,0,0,2.159-2.156q0-6.539,0-13.078V7.329h-.28c-1.01,0-2.02,0-3.029,0a2.527,2.527,0,0,1-2.613-2.6c-.006-.884,0-1.769,0-2.653V1.12m5.123,5.045L13.169,2.047a.464.464,0,0,0-.035.1c0,.923-.014,1.847.019,2.77a1.31,1.31,0,0,0,1.272,1.239c.367.019.736.01,1.1.011.5,0,1,0,1.565,0" transform="translate(0 -0.001)" fill="aqua"/>
    <path id="패스_1382" data-name="패스 1382" d="M121.7,176.258v-.279q0-2.887,0-5.774a1.206,1.206,0,0,1,.063-.435.553.553,0,0,1,.631-.332.581.581,0,0,1,.463.595c0,1.088,0,2.175,0,3.263q0,1.373,0,2.746v.228l.066.052a2.007,2.007,0,0,1,.144-.2c.709-.762,1.421-1.521,2.128-2.284a.621.621,0,0,1,.578-.238.57.57,0,0,1,.374.9,1.925,1.925,0,0,1-.168.2l-3.152,3.383c-.4.43-.693.43-1.1-.007q-1.6-1.717-3.2-3.437a.587.587,0,1,1,.85-.787q1.059,1.131,2.111,2.268l.155.165.051-.026" transform="translate(-112.761 -161.47)" fill="aqua"/>
    <path id="패스_1383" data-name="패스 1383" d="M94.213,402.194q-2.336,0-4.673,0c-.415,0-.684-.232-.686-.578a.59.59,0,0,1,.511-.579,2.03,2.03,0,0,1,.235-.005h9.228a1.222,1.222,0,0,1,.325.027.584.584,0,0,1,.42.6.59.59,0,0,1-.5.516,1.808,1.808,0,0,1-.281.014H94.213" transform="translate(-84.681 -382.199)" fill="aqua"/>
  </g>
</svg>
