<svg xmlns="http://www.w3.org/2000/svg" xmlns:xlink="http://www.w3.org/1999/xlink" width="15" height="18" viewBox="0 0 15 18">
  <defs>
    <clipPath id="clip-path">
      <rect id="사각형_36" data-name="사각형 36" width="15" height="18" fill="#fff"/>
    </clipPath>
  </defs>
  <g id="그룹_3213" data-name="그룹 3213" transform="translate(-604.844 -1047.5)">
    <g id="구성_요소_23_6" data-name="구성 요소 23 – 6" transform="translate(604.844 1047.5)">
      <g id="그룹_1491" data-name="그룹 1491" clip-path="url(#clip-path)">
        <path id="패스_490" data-name="패스 490" d="M11.219,15.938H3.758c0,.253,0,.493,0,.734A1.288,1.288,0,0,1,2.3,18c-.992.007-1.522-.438-1.554-1.306,0-.129-.006-.258,0-.387a1.407,1.407,0,0,0-.414-1.272A1.347,1.347,0,0,1,.016,14.1Q-.014,7.946.007,1.8A1.8,1.8,0,0,1,1.991,0Q7.512,0,13.032,0a1.794,1.794,0,0,1,1.962,1.778c.012,4.123,0,8.247,0,12.37a1.745,1.745,0,0,1-.574,1.3.593.593,0,0,0-.161.362c-.03.384,0,.775-.045,1.157A1.241,1.241,0,0,1,12.895,18c-.92.022-1.478-.3-1.6-.976a8.785,8.785,0,0,1-.071-1.085M.772,10.361H14.215V3.478H.772ZM.748,11.1v2.747c0,.918.49,1.385,1.494,1.386q5.349.007,10.7,0c.875,0,1.3-.4,1.31-1.217.006-.867,0-1.734,0-2.6,0-.1-.016-.2-.026-.316ZM.791,2.743H14.253c0-.269,0-.524,0-.779C14.248,1.08,13.839.7,12.888.7H4.327C3.515.7,2.7.693,1.892.7a1.028,1.028,0,0,0-1.09.8A9.2,9.2,0,0,0,.791,2.743M3,15.916H1.5c0,.186,0,.393,0,.6a1.994,1.994,0,0,0,.01.314c.059.365.289.488.864.47.394-.013.607-.178.626-.516.016-.266,0-.535,0-.869m8.98.02c.11.456-.233,1,.313,1.272a1.175,1.175,0,0,0,.956-.027c.482-.306.181-.826.251-1.246Z" transform="translate(0 0)" fill="#fff"/>
        <path id="패스_491" data-name="패스 491" d="M4.294,16.729a1.064,1.064,0,0,1-1.1,1.033A1.035,1.035,0,1,1,3.183,15.7a1.073,1.073,0,0,1,1.11,1.028m-.7.077v-.151c-.138-.084-.288-.248-.412-.233s-.335.2-.335.31.2.3.337.311.272-.151.41-.238" transform="translate(-0.362 -3.753)" fill="#fff"/>
        <path id="패스_492" data-name="패스 492" d="M15.661,16.746A1.118,1.118,0,1,1,14.57,15.7a1.065,1.065,0,0,1,1.091,1.044m-.7.058c0-.05,0-.1,0-.151-.139-.084-.289-.246-.415-.23s-.333.2-.331.313.205.294.338.308.272-.153.409-.24" transform="translate(-2.36 -3.753)" fill="#fff"/>
        <path id="패스_493" data-name="패스 493" d="M6.393,1.829c.379,0,.759,0,1.138,0,.25,0,.461.107.411.342a.538.538,0,0,1-.387.327c-.782.031-1.569.031-2.351,0a.543.543,0,0,1-.4-.322c-.048-.228.156-.346.409-.348.392,0,.784,0,1.176,0" transform="translate(-0.843 -0.437)" fill="#fff"/>
        <path id="패스_494" data-name="패스 494" d="M10.452,1.821c.114.006.253-.024.335.026.122.075.279.2.282.313a.427.427,0,0,1-.265.317,1.241,1.241,0,0,1-.633.018.557.557,0,0,1-.358-.322c-.046-.21.133-.334.373-.343.089,0,.177,0,.266,0V1.821" transform="translate(-1.723 -0.434)" fill="#fff"/>
      </g>
    </g>
  </g>
</svg>
