<svg id="그룹_2947" data-name="그룹 2947" xmlns="http://www.w3.org/2000/svg" xmlns:xlink="http://www.w3.org/1999/xlink" width="22.406" height="25.528" viewBox="0 0 22.406 25.528">
  <defs>
    <clipPath id="clip-path">
      <rect id="사각형_1" data-name="사각형 1" width="22.406" height="25.528" fill="#eee"/>
    </clipPath>
  </defs>
  <g id="그룹_1429" data-name="그룹 1429" transform="translate(0 0)" clip-path="url(#clip-path)">
    <path id="패스_454" data-name="패스 454" d="M11.172,28.174H1.059C.2,28.174-.033,27.933,0,27.069a9.6,9.6,0,0,1,7.983-9.261,15.651,15.651,0,0,1,8.212.467,9.814,9.814,0,0,1,6.207,8.953c.008.687-.251.946-.971.946q-5.131,0-10.263,0" transform="translate(0 -2.647)" fill="#eee"/>
    <path id="패스_455" data-name="패스 455" d="M18.726,6.722A6.725,6.725,0,1,1,12,0a6.738,6.738,0,0,1,6.722,6.722" transform="translate(-0.799 0)" fill="#eee"/>
  </g>
</svg>
