<svg xmlns="http://www.w3.org/2000/svg" xmlns:xlink="http://www.w3.org/1999/xlink" width="18.037" height="13.538" viewBox="0 0 18.037 13.538">
  <defs>
    <clipPath id="clip-path">
      <rect id="사각형_2521" data-name="사각형 2521" width="18.037" height="13.538" fill="#eee"/>
    </clipPath>
  </defs>
  <g id="그룹_2047" data-name="그룹 2047" transform="translate(0 0)">
    <g id="그룹_2046" data-name="그룹 2046" transform="translate(0 0)" clip-path="url(#clip-path)">
      <path id="패스_1367" data-name="패스 1367" d="M0,6.628A10.811,10.811,0,0,1,6.92,1.365a9.286,9.286,0,0,1,5.912.554.237.237,0,0,0,.314-.062C13.7,1.3,14.258.741,14.815.184a.548.548,0,0,1,.579-.157.534.534,0,0,1,.387.419.588.588,0,0,1-.2.569Q14.436,2.152,13.3,3.3q-5,5-9.995,10a.628.628,0,0,1-.575.237.536.536,0,0,1-.441-.384.543.543,0,0,1,.149-.581q.7-.706,1.409-1.408c.046-.046.1-.083.17-.141A11.862,11.862,0,0,1,0,6.911ZM12.108,2.857a.639.639,0,0,0-.067-.035,8.208,8.208,0,0,0-5.806-.083A10.146,10.146,0,0,0,1.3,6.662c-.067.1-.038.153.015.23A11.255,11.255,0,0,0,3.192,8.983a9.659,9.659,0,0,0,1.622,1.152L6.246,8.7a3.39,3.39,0,0,1,4.73-4.711l1.133-1.137M7.079,7.869l3.044-3.044A2.227,2.227,0,0,0,7.079,7.869" transform="translate(0 0)" fill="#eee"/>
      <path id="패스_1368" data-name="패스 1368" d="M10.783,14.3c.288-.286.574-.573.866-.852a.207.207,0,0,1,.16-.029,8.512,8.512,0,0,0,7.5-1.98,11.186,11.186,0,0,0,1.988-2.182.22.22,0,0,0-.006-.3A11.456,11.456,0,0,0,18.91,6.47c-.05-.039-.1-.079-.142-.113l.823-.826c.271.233.558.465.829.713a12.14,12.14,0,0,1,2.039,2.439.7.7,0,0,1,0,.848,11.128,11.128,0,0,1-5.869,4.741,9.378,9.378,0,0,1-5.685.093.821.821,0,0,1-.083-.027.258.258,0,0,1-.043-.034" transform="translate(-4.565 -2.342)" fill="#eee"/>
      <path id="패스_1369" data-name="패스 1369" d="M18.28,10.209A3.335,3.335,0,0,1,17.267,13.6a3.3,3.3,0,0,1-3.142.761c.352-.35.674-.673,1-.99a.3.3,0,0,1,.163-.052,2.242,2.242,0,0,0,1.942-1.939.3.3,0,0,1,.05-.163c.318-.327.642-.648,1-1.006" transform="translate(-5.98 -4.322)" fill="#eee"/>
    </g>
  </g>
</svg>
