<svg xmlns="http://www.w3.org/2000/svg" xmlns:xlink="http://www.w3.org/1999/xlink" width="32" height="32" viewBox="0 0 32 32">
  <defs>
    <clipPath id="clip-path">
      <rect id="사각형_49" data-name="사각형 49" width="32" height="32" fill="#eee"/>
    </clipPath>
  </defs>
  <g id="그룹_1505" data-name="그룹 1505" clip-path="url(#clip-path)">
    <path id="패스_511" data-name="패스 511" d="M20.9,27.845H11.1c0,1,.007,1.952,0,2.9-.007.93-.324,1.25-1.231,1.254q-2.218,0-4.436,0c-.84,0-1.164-.331-1.171-1.171-.007-.708,0-1.419,0-2.127,0-.46.1-.91-.453-1.234-.208-.126-.275-.625-.275-.959-.02-4.436-.013-8.873-.013-13.309v-.781c-.38,0-.724,0-1.069,0-2.494.03-2.481.1-2.435-2.468A6.978,6.978,0,0,1,.08,8.833C.4,7.116,1.4,6.09,3.464,5.349a17.917,17.917,0,0,1,.152-1.836A4.243,4.243,0,0,1,7.808.01q8.183-.02,16.366,0a4.31,4.31,0,0,1,4.3,4.228c.013.354,0,.708,0,1.088.212.073.4.136.6.2A4.291,4.291,0,0,1,31.994,9.62c.007.6.013,1.207,0,1.813a.912.912,0,0,1-.979.979c-.807.02-1.618,0-2.527,0v.764q0,6.59,0,13.183c0,.562-.017,1.078-.6,1.4-.106.056-.136.321-.139.49-.013.854,0,1.707-.007,2.561S27.409,32,26.582,32q-2.283.01-4.559,0A.979.979,0,0,1,20.9,30.9c-.013-1,0-1.995,0-3.05M5.429,18.38a1.541,1.541,0,0,0,.271.053c3.1,0,6.2.01,9.3-.013.169,0,.39-.228.493-.4a14.592,14.592,0,0,1,.7-1.38,4.472,4.472,0,0,1,4.393-1.929,4.605,4.605,0,0,1,3.9,3.166c.079.205.238.516.387.533a14.232,14.232,0,0,0,1.687.026V6.378H5.429Zm21.139,1.978H5.426v5.528H26.569ZM5.429,4.43H26.539a2.345,2.345,0,0,0-2.4-2.541c-2.312-.017-4.622-.007-6.934-.007-3.1,0-6.2-.007-9.3.007A2.393,2.393,0,0,0,5.429,4.43M6.161,30.1H9.174v-2.25H6.161Zm19.687-2.25H22.824v2.276h3.024Zm-3.255-9.461a2.707,2.707,0,0,0-5.157.05c1.608,0,3.2,0,4.8,0a2.8,2.8,0,0,0,.357-.05M3.481,7.407a2.393,2.393,0,0,0-1.5,3.1h1.5ZM28.534,7.4v3.11h1.515c.261-1.624-.245-2.673-1.515-3.11" transform="translate(-0.001 -0.002)" fill="#eee"/>
    <path id="패스_512" data-name="패스 512" d="M3.172,8.557A.955.955,0,0,1,2.2,7.624a.966.966,0,0,1,.906-.933.933.933,0,0,1,.063,1.866" transform="translate(5.085 15.442)" fill="#eee"/>
    <path id="패스_513" data-name="패스 513" d="M8.773,7.6a.958.958,0,0,1-.883.953.923.923,0,0,1-.979-.906.934.934,0,0,1,.933-.959.964.964,0,0,1,.93.913" transform="translate(15.949 15.44)" fill="#eee"/>
  </g>
</svg>
