<svg xmlns="http://www.w3.org/2000/svg" xmlns:xlink="http://www.w3.org/1999/xlink" width="20.255" height="18" viewBox="0 0 20.255 18">
  <defs>
    <clipPath id="clip-path">
      <rect id="사각형_40" data-name="사각형 40" width="20.255" height="18" fill="#00ffff"/>
    </clipPath>
  </defs>
  <g id="그룹_3215" data-name="그룹 3215" transform="translate(-681.507 -1047.5)">
    <g id="구성_요소_25_6" data-name="구성 요소 25 – 6" transform="translate(681.507 1047.5)">
      <g id="그룹_1497" data-name="그룹 1497" clip-path="url(#clip-path)">
        <path id="패스_505" data-name="패스 505" d="M10.13,18C7.467,18,4.8,18,2.14,17.993a3.827,3.827,0,0,1-1.09-.137,1.432,1.432,0,0,1-.983-1.841,3.793,3.793,0,0,1,.367-.825Q4.459,8.205,8.493,1.226c.949-1.641,2.283-1.635,3.243.015q4.043,6.952,8.078,13.908a3.657,3.657,0,0,1,.361.787,1.5,1.5,0,0,1-1.3,2.012,5.4,5.4,0,0,1-.788.049Q14.108,18,10.13,18m-.037-1.008h8.033c1.164,0,1.359-.339.776-1.35q-4-6.932-8.009-13.864C10.309.767,9.915.766,9.335,1.77Q5.33,8.7,1.328,15.635C.747,16.641.947,16.99,2.1,16.99h7.995" transform="translate(0 0)" fill="#00ffff"/>
        <path id="패스_506" data-name="패스 506" d="M11.251,8.841c0,1.068,0,2.136,0,3.2,0,.426-.188.667-.5.664s-.5-.244-.5-.675q0-3.164,0-6.327c0-.43.192-.664.512-.659s.49.231.491.671c0,1.042,0,2.082,0,3.124" transform="translate(-0.641 -0.315)" fill="#00ffff"/>
        <path id="패스_507" data-name="패스 507" d="M10.714,16.179a.859.859,0,0,1-.861-.882.876.876,0,0,1,.872-.877.89.89,0,0,1,.887.908.879.879,0,0,1-.9.851" transform="translate(-0.616 -0.902)" fill="#00ffff"/>
      </g>
    </g>
  </g>
</svg>
