<svg xmlns="http://www.w3.org/2000/svg" xmlns:xlink="http://www.w3.org/1999/xlink" width="35.92" height="35.923" viewBox="0 0 35.92 35.923">
  <defs>
    <clipPath id="clip-path">
      <rect id="사각형_49" data-name="사각형 49" width="35.92" height="35.923" fill="aqua"/>
    </clipPath>
  </defs>
  <g id="그룹_2048" data-name="그룹 2048" transform="translate(0 -0.001)">
    <g id="그룹_1505" data-name="그룹 1505" transform="translate(0 0)" clip-path="url(#clip-path)">
      <path id="패스_511" data-name="패스 511" d="M23.455,31.256h-11c0,1.118.007,2.191,0,3.26-.007,1.043-.364,1.4-1.381,1.407q-2.49.006-4.98,0c-.943,0-1.307-.371-1.315-1.315-.007-.795,0-1.593,0-2.388,0-.516.108-1.021-.509-1.385-.234-.141-.308-.7-.308-1.077-.022-4.98-.015-9.959-.015-14.939V13.94c-.427,0-.813,0-1.2,0-2.8.033-2.785.111-2.733-2.77A7.833,7.833,0,0,1,.09,9.915C.446,7.987,1.572,6.836,3.889,6A20.112,20.112,0,0,1,4.06,3.944,4.763,4.763,0,0,1,8.764.011q9.185-.022,18.37,0a4.838,4.838,0,0,1,4.831,4.746c.015.4,0,.795,0,1.222.238.082.453.152.668.227A4.817,4.817,0,0,1,35.913,10.8c.007.676.015,1.355,0,2.035a1.024,1.024,0,0,1-1.1,1.1c-.906.022-1.816,0-2.837,0v.858q0,7.4,0,14.8c0,.631-.019,1.211-.676,1.567-.119.063-.152.36-.156.55-.015.958,0,1.916-.007,2.874s-.371,1.333-1.3,1.337q-2.562.011-5.117,0a1.1,1.1,0,0,1-1.263-1.24c-.015-1.121,0-2.239,0-3.424M6.095,20.632a1.73,1.73,0,0,0,.3.059c3.479,0,6.959.011,10.438-.015.189,0,.438-.256.553-.453a16.38,16.38,0,0,1,.791-1.548,5.02,5.02,0,0,1,4.931-2.165,5.169,5.169,0,0,1,4.378,3.554c.089.23.267.579.434.6a15.976,15.976,0,0,0,1.894.03V7.159H6.095Zm23.729,2.221H6.091v6.205H29.823ZM6.095,4.972h23.7a2.632,2.632,0,0,0-2.7-2.852c-2.6-.019-5.188-.007-7.783-.007-3.479,0-6.959-.007-10.442.007A2.686,2.686,0,0,0,6.095,4.972m.821,28.812H10.3V31.259H6.915Zm22.1-2.525H25.62v2.555h3.394ZM25.36,20.639a3.039,3.039,0,0,0-5.789.056c1.8,0,3.595,0,5.388,0a3.148,3.148,0,0,0,.4-.056M3.907,8.314A2.686,2.686,0,0,0,2.225,11.79H3.907ZM32.029,8.3v3.491h1.7c.293-1.823-.275-3-1.7-3.491" transform="translate(-0.001 -0.002)" fill="aqua"/>
      <path id="패스_512" data-name="패스 512" d="M3.291,8.786A1.072,1.072,0,0,1,2.2,7.739,1.084,1.084,0,0,1,3.22,6.692a1.048,1.048,0,0,1,.071,2.094" transform="translate(5.978 18.153)" fill="aqua"/>
      <path id="패스_513" data-name="패스 513" d="M9,7.715a1.076,1.076,0,0,1-.991,1.069,1.036,1.036,0,0,1-1.1-1.017A1.048,1.048,0,0,1,7.957,6.69,1.082,1.082,0,0,1,9,7.715" transform="translate(18.749 18.151)" fill="aqua"/>
    </g>
  </g>
</svg>
