<svg xmlns="http://www.w3.org/2000/svg" xmlns:xlink="http://www.w3.org/1999/xlink" width="19" height="15.626" viewBox="0 0 19 15.626">
  <defs>
    <clipPath id="clip-path">
      <rect id="사각형_35" data-name="사각형 35" width="19" height="15.626" fill="#fff"/>
    </clipPath>
  </defs>
  <g id="그룹_3212" data-name="그룹 3212" transform="translate(-564 -1048.588)">
    <g id="구성_요소_22_6" data-name="구성 요소 22 – 6" transform="translate(564 1048.588)">
      <g id="그룹_1489" data-name="그룹 1489" clip-path="url(#clip-path)">
        <path id="패스_486" data-name="패스 486" d="M17.364,15.626H1.636a.375.375,0,0,1-.328-.2A10.844,10.844,0,0,1,0,10.24C0,4.593,4.262,0,9.5,0S19,4.593,19,10.24a10.844,10.844,0,0,1-1.309,5.185.377.377,0,0,1-.328.2M1.857,14.807H17.143a9.981,9.981,0,0,0,1.1-4.567c0-5.195-3.92-9.42-8.741-9.42S.76,5.045.76,10.24a9.989,9.989,0,0,0,1.1,4.567" transform="translate(0 0)" fill="#fff"/>
        <path id="패스_487" data-name="패스 487" d="M2.778,11.085a.317.317,0,0,1-.047,0,.4.4,0,0,1-.333-.412c.053-4.565,3.546-8.279,7.784-8.279A7.377,7.377,0,0,1,14.6,3.877a.414.414,0,0,1,.159.278.438.438,0,0,1-.08.317l-1.8,2.4a.362.362,0,0,1-.511.079,5.654,5.654,0,0,0-3.4-1.144A6.073,6.073,0,0,0,3.147,10.77a.387.387,0,0,1-.369.315m7.4-7.874A7.035,7.035,0,0,0,3.848,7.519,6.533,6.533,0,0,1,8.971,4.987,6.344,6.344,0,0,1,12.5,6.069L13.824,4.31a6.623,6.623,0,0,0-3.642-1.1" transform="translate(-0.683 -0.548)" fill="#fff"/>
        <path id="패스_488" data-name="패스 488" d="M12.622,14.543a1.8,1.8,0,0,1,0-3.584,1.8,1.8,0,0,1,0,3.584m0-2.765a.976.976,0,1,0,.9.973.941.941,0,0,0-.9-.973" transform="translate(-3.122 -2.511)" fill="#fff"/>
        <path id="패스_489" data-name="패스 489" d="M14.4,11.312a.393.393,0,0,1-.38-.408.435.435,0,0,1,.111-.293l3.1-3.34a.361.361,0,0,1,.538,0,.433.433,0,0,1,0,.579l-3.085,3.325a.365.365,0,0,1-.282.136" transform="translate(-3.993 -1.639)" fill="#fff"/>
      </g>
    </g>
  </g>
</svg>
