<svg xmlns="http://www.w3.org/2000/svg" xmlns:xlink="http://www.w3.org/1999/xlink" width="20.009" height="20" viewBox="0 0 20.009 20">
  <defs>
    <clipPath id="clip-path">
      <rect id="사각형_27" data-name="사각형 27" width="20.009" height="20" fill="#eee"/>
    </clipPath>
  </defs>
  <g id="그룹_1469" data-name="그룹 1469" clip-path="url(#clip-path)">
    <path id="패스_471" data-name="패스 471" d="M20.01,10.006A10.005,10.005,0,1,1,10.041,0,10,10,0,0,1,20.01,10.006M9.976,18.435A8.436,8.436,0,1,0,1.565,9.96a8.439,8.439,0,0,0,8.411,8.475" transform="translate(0 0)" fill="#eee"/>
    <path id="패스_472" data-name="패스 472" d="M10.684,12.966c0-.779,0-1.559,0-2.338,0-.561.306-.925.771-.933a.809.809,0,0,1,.792.912q0,2.4,0,4.792a.8.8,0,0,1-.77.89c-.472.008-.79-.352-.792-.907,0-.805,0-1.611,0-2.416" transform="translate(-1.462 -1.326)" fill="#eee"/>
    <path id="패스_473" data-name="패스 473" d="M11.411,6.152A1.054,1.054,0,1,1,10.373,7.2a1.047,1.047,0,0,1,1.038-1.045" transform="translate(-1.419 -0.841)" fill="#eee"/>
  </g>
</svg>
