<svg xmlns="http://www.w3.org/2000/svg" xmlns:xlink="http://www.w3.org/1999/xlink" width="34" height="34" viewBox="0 0 34 34">
  <defs>
    <clipPath id="clip-path">
      <rect id="사각형_12" data-name="사각형 12" width="34" height="34" transform="translate(-0.016 0.282)" fill="#eee"/>
    </clipPath>
  </defs>
  <g id="그룹_1657" data-name="그룹 1657" transform="translate(0.016 -0.282)" style="isolation: isolate">
    <g id="그룹_1448" data-name="그룹 1448" transform="translate(0 0)" clip-path="url(#clip-path)">
      <path id="패스_465" data-name="패스 465" d="M3.316,16.065c-.575,0-1.067.023-1.557,0a1.712,1.712,0,0,1-1.749-1.9c-.016-.846-.009-1.693,0-2.539C.02,10.3.632,9.632,1.887,9.587c.44-.016.882,0,1.429,0,0-1.282.057-2.473-.01-3.658A5.447,5.447,0,0,1,8.9,0C14.682.121,20.47.034,26.255.037c3.418,0,5.523,2.2,5.535,5.762,0,1.22,0,2.44,0,3.789.577,0,1.07-.025,1.559,0A1.73,1.73,0,0,1,35.1,11.5c.016.846.01,1.693,0,2.539-.013,1.335-.614,1.982-1.883,2.03-.438.015-.877,0-1.427,0V17.1c0,2.949-.027,5.9.01,8.844a3.735,3.735,0,0,1-2.384,3.893.846.846,0,0,0-.388.622C28.981,31.3,29.019,32.151,29,33c-.025,1.442-.644,2.089-1.992,2.1-.751.007-1.5.012-2.254,0A1.756,1.756,0,0,1,22.9,33.123c-.014-1.014,0-2.028,0-3.085H12.378c0,.976,0,1.956,0,2.937-.007,1.478-.622,2.115-2.045,2.125-.7,0-1.391.007-2.087,0-1.31-.015-1.928-.654-1.955-2.043-.017-.817-.021-1.636,0-2.453a.685.685,0,0,0-.555-.8,3.421,3.421,0,0,1-2.415-3.478c-.021-3.064-.007-6.13-.008-9.194V16.065m14.236,5.6c2.976,0,5.954.005,8.93,0,1.725,0,2.51-.814,2.515-2.613q.016-5.781,0-11.561c-.005-1.8-.8-2.623-2.514-2.625q-8.931-.01-17.861,0c-1.719,0-2.51.825-2.514,2.624q-.016,5.781,0,11.561c.005,1.8.788,2.61,2.514,2.614,2.976.007,5.954,0,8.93,0m-9.3,5.6a2.248,2.248,0,0,0,.024-4.49,2.247,2.247,0,0,0-.024,4.49m20.732-2.222A2.175,2.175,0,0,0,26.9,22.777a2.246,2.246,0,0,0-.129,4.486,2.175,2.175,0,0,0,2.215-2.221" transform="translate(-0.378 -0.377)" fill="#eee"/>
    </g>
  </g>
</svg>
