<svg xmlns="http://www.w3.org/2000/svg" xmlns:xlink="http://www.w3.org/1999/xlink" width="40" height="40" viewBox="0 0 40 40">
  <defs>
    <clipPath id="clip-path">
      <rect id="사각형_4119" data-name="사각형 4119" width="23.335" height="23.335" fill="#eee"/>
    </clipPath>
  </defs>
  <g id="그룹_3216" data-name="그룹 3216" transform="translate(-1030 -99)">
    <rect id="사각형_3774" data-name="사각형 3774" width="40" height="40" rx="10" transform="translate(1030 99)" fill="#00FFFF"/>
    <g id="그룹_3215" data-name="그룹 3215" transform="translate(1038 107)">
      <g id="그룹_3213" data-name="그룹 3213" clip-path="url(#clip-path)">
        <path id="패스_1523" data-name="패스 1523" d="M22.979,8.9H20.688A9.375,9.375,0,0,0,20,7.243l1.621-1.622a.342.342,0,0,0,.015-.486L18.2,1.7a.345.345,0,0,0-.487.015L16.092,3.336a9.438,9.438,0,0,0-1.662-.69V.355A.344.344,0,0,0,14.1,0H9.237A.344.344,0,0,0,8.9.355V2.647a9.4,9.4,0,0,0-1.662.689L5.621,1.715A.345.345,0,0,0,5.135,1.7L1.7,5.135a.344.344,0,0,0,.015.486L3.336,7.243A9.387,9.387,0,0,0,2.646,8.9H.355A.344.344,0,0,0,0,9.238V14.1a.344.344,0,0,0,.355.333H2.646a9.36,9.36,0,0,0,.689,1.661L1.714,17.713A.346.346,0,0,0,1.7,18.2l3.436,3.436a.345.345,0,0,0,.487-.015L7.243,20a9.349,9.349,0,0,0,1.661.689V22.98a.345.345,0,0,0,.333.355H14.1a.345.345,0,0,0,.334-.355V20.688A9.358,9.358,0,0,0,16.091,20l1.622,1.622a.345.345,0,0,0,.487.015L21.635,18.2a.344.344,0,0,0-.015-.487L20,16.092a9.365,9.365,0,0,0,.689-1.662h2.291a.344.344,0,0,0,.355-.333V9.238a.345.345,0,0,0-.355-.334M11.667,16.67a5,5,0,1,1,5-5,5,5,0,0,1-5,5" fill="#eee" fill-rule="evenodd"/>
      </g>
    </g>
  </g>
</svg>
