<svg xmlns="http://www.w3.org/2000/svg" xmlns:xlink="http://www.w3.org/1999/xlink" width="73.973" height="122.76" viewBox="0 0 73.973 122.76">
  <defs>
    <style>
      .cls-1 {
        fill: none;
      }

      .cls-2 {
        clip-path: url(#clip-path);
      }

      .cls-3 {
        fill: #fff;
      }

      .cls-4 {
        fill: #14100e;
      }
    </style>
    <clipPath id="clip-path">
      <rect id="사각형_4118" data-name="사각형 4118" class="cls-1" width="53.396" height="122.76" transform="translate(-207.01 145.309)"/>
    </clipPath>
  </defs>
  <g id="그룹_3214" data-name="그룹 3214" transform="translate(207.01 -145.309)">
    <g id="그룹_3213" data-name="그룹 3213">
      <g id="그룹_3212" data-name="그룹 3212" class="cls-2">
        <g id="그룹_1736" data-name="그룹 1736">
          <path id="패스_994" data-name="패스 994" class="cls-3" d="M-154.78,190.767a1.168,1.168,0,0,0,1.17-1.164V174.2a1.167,1.167,0,0,0-1.167-1.167h-1.061V153.948a8.638,8.638,0,0,0-8.638-8.638h-31.672a8.637,8.637,0,0,0-8.637,8.638v19.086h-1.058a1.167,1.167,0,0,0-1.167,1.166v15.4a1.168,1.168,0,0,0,1.167,1.167h1.058v41.094h-1.058a1.166,1.166,0,0,0-1.167,1.167v15.4a1.168,1.168,0,0,0,1.167,1.168h1.058v9.837a8.638,8.638,0,0,0,8.637,8.638h31.672a8.639,8.639,0,0,0,8.638-8.638h0V249.6h1.058a1.168,1.168,0,0,0,1.167-1.167h0v-15.4a1.166,1.166,0,0,0-1.165-1.167h-1.06V190.767Z"/>
          <path id="패스_995" data-name="패스 995" class="cls-4" d="M-161.4,260.1a1.121,1.121,0,0,1-1.122-1.12V154.8a1.121,1.121,0,0,1,1.121-1.123,1.123,1.123,0,0,1,1.123,1.121V258.974a1.122,1.122,0,0,1-1.12,1.122h0"/>
          <path id="패스_996" data-name="패스 996" class="cls-4" d="M-198.633,260.1a1.122,1.122,0,0,1-1.124-1.12V154.8a1.122,1.122,0,0,1,1.122-1.122,1.122,1.122,0,0,1,1.122,1.122h0V258.974a1.121,1.121,0,0,1-1.119,1.123h0"/>
          <path id="패스_997" data-name="패스 997" class="cls-4" d="M-174.417,208.849h-11.789a4.346,4.346,0,0,1-4.345-4.347h0v-36a4.345,4.345,0,0,1,4.345-4.346h11.789a4.348,4.348,0,0,1,4.348,4.346v36a4.35,4.35,0,0,1-4.348,4.348"/>
        </g>
      </g>
    </g>
    <path id="패스_1522" data-name="패스 1522" class="cls-3" d="M-133.868,178.45l-21.108-21.109v8.018l17.1,17.1a2.834,2.834,0,0,0,4.008,0A2.835,2.835,0,0,0-133.868,178.45Z"/>
    <path id="패스_1523" data-name="패스 1523" class="cls-3" d="M-133.868,230.544l-21.108-21.109v8.018l17.1,17.1a2.834,2.834,0,0,0,4.008,0A2.835,2.835,0,0,0-133.868,230.544Z"/>
  </g>
</svg>
