<svg xmlns="http://www.w3.org/2000/svg" xmlns:xlink="http://www.w3.org/1999/xlink" width="25.794" height="25.775" viewBox="0 0 25.794 25.775">
  <defs>
    <clipPath id="clip-path">
      <rect id="사각형_7" data-name="사각형 7" width="25.794" height="25.775" fill="aqua"/>
    </clipPath>
  </defs>
  <g id="그룹_1446" data-name="그룹 1446" transform="translate(0 0)">
    <g id="그룹_1445" data-name="그룹 1445" transform="translate(0 0)" clip-path="url(#clip-path)">
      <path id="패스_462" data-name="패스 462" d="M10.594,24.263V22.755h-.555q-3.7,0-7.4,0A2.328,2.328,0,0,1,0,20.141Q0,13.7,0,7.264A2.364,2.364,0,0,1,2.65,4.589q5.133,0,10.265,0h.724c0-.459,0-.871,0-1.283s-.006-.806.03-1.206A2.2,2.2,0,0,1,15.855.022q2.315-.044,4.629,0A2.173,2.173,0,0,1,22.667,2.1c.053.8.01,1.6.01,2.453.359.022.654.033.947.06a2.29,2.29,0,0,1,2.144,2.25c.008.168,0,.336,0,.5,0,4.209-.043,8.418.021,12.626a2.515,2.515,0,0,1-2.814,2.786c-2.4-.08-4.8-.02-7.194-.02H15.2v1.508c.673,0,1.34,0,2.007,0,.624,0,.969.285.957.774-.012.467-.348.735-.946.735q-4.328,0-8.655,0c-.6,0-.934-.267-.946-.734-.013-.489.332-.772.956-.775.667,0,1.334,0,2.025,0M1.512,18.189H24.26v-.583c0-3.42-.023-6.84.015-10.26.011-1.02-.411-1.431-1.547-1.163-.008.154-.023.318-.024.482,0,2.028.012,4.057-.006,6.085A2.277,2.277,0,0,1,20.2,15.207c-1.308.005-2.616,0-3.924,0a2.329,2.329,0,0,1-2.641-2.615c0-1.962,0-3.923,0-5.885,0-.192-.016-.384-.026-.606h-.569q-5.208,0-10.414,0c-.885,0-1.116.24-1.116,1.145q0,3.9,0,7.8v3.146m13.665-7.536h5.969V4.634H15.177Zm9.082,9.119H1.536c-.086,1.3.07,1.472,1.335,1.472H23c.151,0,.3.006.453,0a.757.757,0,0,0,.8-.783c.012-.217,0-.434,0-.687M21.181,3.052c0-.287.017-.535,0-.78a.726.726,0,0,0-.78-.744q-2.237-.017-4.474,0a.709.709,0,0,0-.756.714c-.023.259,0,.521,0,.809Zm-6.022,9.162c0,.252-.015.483,0,.711a.739.739,0,0,0,.81.767q2.208.015,4.418,0a.724.724,0,0,0,.787-.735c.02-.243,0-.488,0-.743Zm-3,12.024H13.6V22.781H12.163Z" transform="translate(0 0)" fill="aqua"/>
      <path id="패스_463" data-name="패스 463" d="M9.49,15.208H7.472c-1.19,0-2.379.005-3.569,0-.54,0-.88-.307-.879-.755s.341-.75.881-.752c1.676-.006,3.352,0,5.027,0h.546c-.126-.186-.28-.309-.274-.425a1.719,1.719,0,0,1,.178-.865.588.588,0,0,1,.9-.074,22.08,22.08,0,0,1,1.7,1.706.694.694,0,0,1-.118.995c-.458.466-.917.931-1.387,1.385a.752.752,0,0,1-1.076.125.766.766,0,0,1-.063-1.115c.034-.051.069-.1.154-.22" transform="translate(0 0)" fill="aqua"/>
      <path id="패스_464" data-name="패스 464" d="M5.694,10.68c.133.236.321.416.3.575-.028.272-.113.649-.305.764A.924.924,0,0,1,4.841,12,15.9,15.9,0,0,1,3.2,10.383.7.7,0,0,1,3.288,9.35c.457-.466.917-.929,1.386-1.385a.754.754,0,0,1,1.112-.106c.328.3.331.671.009,1.115-.027.038-.05.079-.108.172.177.009.316.022.456.022q2.512,0,5.025,0c.621,0,.965.288.951.777-.013.467-.347.731-.947.732-1.808,0-3.616,0-5.478,0" transform="translate(0 0)" fill="aqua"/>
    </g>
  </g>
</svg>
