<svg xmlns="http://www.w3.org/2000/svg" width="27.306" height="33.5" viewBox="0 0 27.306 33.5">
  <g id="그룹_3123" data-name="그룹 3123" transform="translate(-76.75 -122.75)">
    <path id="패스_1419" data-name="패스 1419" d="M89.49,122.75h1.277a8.894,8.894,0,0,1,9.161,9.231V137.2h4.129v10.693a7.964,7.964,0,0,1-2.772,5.969,9.479,9.479,0,0,1-6.235,2.387H85.206a8.477,8.477,0,0,1-5.985-2.411,8.259,8.259,0,0,1-2.471-5.945V137.2h3.1v-5.221a8.975,8.975,0,0,1,2.844-6.628A9.88,9.88,0,0,1,89.49,122.75ZM102.556,138.7H98.427v-6.721a7.444,7.444,0,0,0-7.661-7.731H89.49c-4.642,0-8.143,3.324-8.143,7.731V138.7h-3.1v9.193a6.833,6.833,0,0,0,6.956,6.856h9.844c4.069,0,7.507-3.14,7.507-6.856ZM89.49,125.847h1.277a5.984,5.984,0,0,1,4.391,1.717,6.144,6.144,0,0,1,1.673,4.417V138.7H82.944v-6.721A6.211,6.211,0,0,1,89.49,125.847ZM95.331,137.2v-5.221a4.31,4.31,0,0,0-4.564-4.634H89.49c-2.924,0-5.046,1.949-5.046,4.634V137.2Z" transform="translate(0 0)" fill="#eee"/>
    <path id="패스_1420" data-name="패스 1420" d="M89.5,140a1.763,1.763,0,0,1,1.75,1.812v3.275a3.345,3.345,0,0,1,1.78,2.871,3.2,3.2,0,0,1-3.168,3.375,3.549,3.549,0,0,1-2.421-.976,3.294,3.294,0,0,1-1.05-2.4,3.1,3.1,0,0,1,1.359-2.846v-3.3A1.763,1.763,0,0,1,89.5,140Zm.362,9.833a1.714,1.714,0,0,0,1.668-1.875,1.96,1.96,0,0,0-1.312-1.707l-.468-.19v-4.249c0-.116-.053-.312-.25-.312s-.25.2-.25.312v4.258l-.465.191c-.384.158-.894.505-.894,1.7A1.951,1.951,0,0,0,89.862,149.833Z" transform="translate(0.391 1)" fill="#eee"/>
  </g>
</svg>
