<svg xmlns="http://www.w3.org/2000/svg" xmlns:xlink="http://www.w3.org/1999/xlink" width="29.434" height="29.489" viewBox="0 0 29.434 29.489">
  <defs>
    <clipPath id="clip-path">
      <rect id="사각형_82" data-name="사각형 82" width="29.434" height="29.489" fill="#eee"/>
    </clipPath>
  </defs>
  <g id="그룹_1598" data-name="그룹 1598" transform="translate(0 0)">
    <g id="그룹_1597" data-name="그룹 1597" transform="translate(0 0)" clip-path="url(#clip-path)">
      <path id="패스_528" data-name="패스 528" d="M10.554,19.2c-.454-.819-.869-1.541-1.257-2.279a22.165,22.165,0,0,1-2.605-7.8,8.006,8.006,0,1,1,15.87-.011,24.2,24.2,0,0,1-3.427,9.306c-.131.226-.262.451-.457.783h1.229c1.677,0,3.355.017,5.032-.008a.81.81,0,0,1,.892.63c1.045,2.795,2.118,5.575,3.179,8.361.362.95.276,1.075-.722,1.075H3.369c-.878,0-1.758.006-2.639,0-.66-.006-.811-.223-.577-.839,1.095-2.881,2.207-5.759,3.291-8.646a.782.782,0,0,1,.867-.58c2.045.02,4.09.008,6.244.008m4.021,4.235a40.756,40.756,0,0,0,5.486-8.713,17.8,17.8,0,0,0,1.63-5.687,6.933,6.933,0,0,0-3.525-7.147,6.686,6.686,0,0,0-7.774.457c-2.58,1.906-3.279,4.594-2.7,7.643.975,5.132,3.817,9.317,6.882,13.446m-3.335,3.16c-.167-.234-.279-.4-.4-.56q-1.847-2.4-3.7-4.809C6.2,20.013,6.2,20,4.687,20.077a.764.764,0,0,0-.56.379C3.146,22.967,2.2,25.486,1.237,28c-.042.109-.061.226-.106.39,1.574,0,3.1,0,4.634,0a1.848,1.848,0,0,0,.543-.053c1.616-.566,3.229-1.142,4.932-1.747m14.3-5.085a6.145,6.145,0,0,1-.279-.775c-.117-.563-.435-.7-.995-.691-1.858.042-3.72.031-5.578.006a.934.934,0,0,0-.878.485c-.841,1.2-1.714,2.391-2.594,3.566-.49.652-.674.655-1.151.02-.906-1.209-1.78-2.441-2.675-3.658-.114-.153-.276-.376-.421-.379-1.17-.031-2.34-.02-3.633-.02,1.594,2.07,3.09,4.032,4.62,5.968.1.123.479.12.685.05,2.753-.961,5.5-1.945,8.25-2.923,1.535-.546,3.07-1.089,4.647-1.649m-2.377,6.854c-.137-.2-.226-.351-.334-.49-.8-1.039-1.613-2.062-2.388-3.118a.585.585,0,0,0-.805-.242Q14.621,26.319,9.593,28.1c-.159.059-.315.137-.613.267Zm-2.187-4.313c1.1,1.427,2.154,2.8,3.218,4.163a.52.52,0,0,0,.359.173c1.179.014,2.357.008,3.622.008-.786-2.056-1.544-4.043-2.318-6.08l-4.881,1.736" transform="translate(0.089 0.09)" fill="#eee"/>
      <path id="패스_529" data-name="패스 529" d="M10.554,19.2c-.454-.819-.869-1.541-1.257-2.279a22.165,22.165,0,0,1-2.605-7.8,8.006,8.006,0,1,1,15.87-.011,24.2,24.2,0,0,1-3.427,9.306c-.131.226-.262.451-.457.783h1.229c1.677,0,3.355.017,5.032-.008a.81.81,0,0,1,.892.63c1.045,2.795,2.118,5.575,3.179,8.361.362.95.276,1.075-.722,1.075H3.369c-.878,0-1.758.006-2.639,0-.66-.006-.811-.223-.577-.839,1.095-2.881,2.207-5.759,3.291-8.646a.782.782,0,0,1,.867-.58C6.356,19.211,8.4,19.2,10.554,19.2Zm4.021,4.235a40.756,40.756,0,0,0,5.486-8.713,17.8,17.8,0,0,0,1.63-5.687,6.933,6.933,0,0,0-3.525-7.147,6.686,6.686,0,0,0-7.774.457c-2.58,1.906-3.279,4.594-2.7,7.643C8.668,15.121,11.51,19.306,14.575,23.435Zm-3.335,3.16c-.167-.234-.279-.4-.4-.56q-1.847-2.4-3.7-4.809C6.2,20.013,6.2,20,4.687,20.077a.764.764,0,0,0-.56.379C3.146,22.967,2.2,25.486,1.237,28c-.042.109-.061.226-.106.39,1.574,0,3.1,0,4.634,0a1.848,1.848,0,0,0,.543-.053C7.924,27.776,9.537,27.2,11.24,26.594Zm14.3-5.085a6.145,6.145,0,0,1-.279-.775c-.117-.563-.435-.7-.995-.691-1.858.042-3.72.031-5.578.006a.934.934,0,0,0-.878.485c-.841,1.2-1.714,2.391-2.594,3.566-.49.652-.674.655-1.151.02-.906-1.209-1.78-2.441-2.675-3.658-.114-.153-.276-.376-.421-.379-1.17-.031-2.34-.02-3.633-.02,1.594,2.07,3.09,4.032,4.62,5.968.1.123.479.12.685.05,2.753-.961,5.5-1.945,8.25-2.923C22.424,22.613,23.959,22.07,25.536,21.51Zm-2.377,6.854c-.137-.2-.226-.351-.334-.49-.8-1.039-1.613-2.062-2.388-3.118a.585.585,0,0,0-.805-.242Q14.621,26.319,9.593,28.1c-.159.059-.315.137-.613.267Zm-2.187-4.313c1.1,1.427,2.154,2.8,3.218,4.163a.52.52,0,0,0,.359.173c1.179.014,2.357.008,3.622.008-.786-2.056-1.544-4.043-2.318-6.08Z" transform="translate(0.089 0.09)" fill="#eee"/>
      <path id="패스_529_-_윤곽선" data-name="패스 529 - 윤곽선" d="M1.862,29.31c-.441,0-.8,0-1.133,0-.361,0-.566-.069-.665-.213s-.085-.358.042-.693q.6-1.573,1.2-3.146c.689-1.8,1.4-3.664,2.09-5.5a.829.829,0,0,1,.9-.612h.013c.836.008,1.722.012,2.873.012,1.076,0,2.167,0,3.286,0-.12-.215-.237-.424-.351-.628-.3-.543-.592-1.056-.865-1.577A22.04,22.04,0,0,1,6.643,9.128,8.285,8.285,0,0,1,8.667,2.673,7.908,7.908,0,0,1,14.641,0h.043a7.87,7.87,0,0,1,5.909,2.677,8.3,8.3,0,0,1,2.019,6.439,24.322,24.322,0,0,1-3.433,9.325c-.121.208-.242.417-.413.708h1.141l1.438,0,1.438,0c.84,0,1.525,0,2.155-.014h.032a.856.856,0,0,1,.907.662c.746,2,1.52,4.019,2.268,5.975q.456,1.193.911,2.386c.187.49.26.771.142.942s-.4.2-.91.2H3.369ZM4.3,19.241a.728.728,0,0,0-.807.547c-.689,1.836-1.4,3.7-2.09,5.5Q.8,26.861.2,28.434c-.113.3-.13.489-.053.6s.263.167.583.17.691,0,1.132,0l1.506,0h24.92c.456,0,.737-.026.828-.158s.014-.413-.153-.85q-.455-1.194-.911-2.386c-.748-1.956-1.521-3.979-2.268-5.976a.761.761,0,0,0-.844-.6c-.631.009-1.316.014-2.157.014l-1.438,0-1.438,0H18.592l.044-.075c.195-.331.326-.557.457-.783a24.23,24.23,0,0,0,3.421-9.287,8.2,8.2,0,0,0-1.995-6.361A7.772,7.772,0,0,0,14.683.1h-.043a7.809,7.809,0,0,0-5.9,2.639,8.185,8.185,0,0,0-2,6.377,21.944,21.944,0,0,0,2.6,7.781c.273.52.56,1.032.864,1.575.128.228.258.461.392.7l.041.074h-.085c-1.149,0-2.267,0-3.371,0-1.151,0-2.038,0-2.874-.012Zm-.064,9.2H1.066l.017-.063c.016-.059.029-.111.04-.159a1.879,1.879,0,0,1,.067-.236l.569-1.5c.754-1.985,1.534-4.039,2.321-6.052a.817.817,0,0,1,.6-.411c.307-.016.539-.027.735-.027.837,0,.992.2,1.74,1.17l.019.024Q9.03,23.6,10.878,26c.081.105.159.216.248.343l.154.218.039.054-.063.022-1.216.432c-1.28.455-2.489.885-3.715,1.315a1.618,1.618,0,0,1-.493.055h-1.6Zm-3.037-.1H5.831a1.547,1.547,0,0,0,.462-.05c1.226-.429,2.435-.859,3.714-1.314l1.154-.41-.116-.165c-.089-.127-.165-.236-.245-.34q-1.847-2.4-3.7-4.809l-.019-.024c-.74-.959-.874-1.131-1.661-1.131-.193,0-.424.011-.73.027a.72.72,0,0,0-.516.347c-.786,2.013-1.566,4.066-2.32,6.051l-.569,1.5a1.809,1.809,0,0,0-.063.223C1.213,28.276,1.205,28.309,1.2,28.344Zm25.331.1c-.583,0-1.273,0-1.978-.009a.567.567,0,0,1-.4-.192c-.8-1.021-1.576-2.031-2.4-3.1l-.819-1.063-.042-.055L20.955,24l4.882-1.736.046-.016.017.046c.705,1.855,1.442,3.786,2.318,6.079l.026.068H26.527Zm-5.474-4.371.777,1.009c.823,1.069,1.6,2.078,2.4,3.1a.47.47,0,0,0,.32.154c.705.008,1.4.009,1.978.009H28.1c-.858-2.245-1.582-4.144-2.275-5.966Zm2.2,4.339H8.742l.218-.1.269-.121c.141-.064.242-.11.346-.148l2.219-.789c2.565-.912,5.217-1.856,7.82-2.794a.991.991,0,0,1,.337-.071.641.641,0,0,1,.526.331c.523.713,1.075,1.423,1.608,2.11.256.329.521.67.779,1.007.072.092.134.188.207.3.039.06.081.124.129.194Zm-14.039-.1h13.85l-.077-.117c-.072-.109-.134-.2-.2-.293-.258-.337-.523-.678-.779-1.007-.534-.687-1.086-1.4-1.61-2.112-.151-.206-.28-.29-.445-.29a.9.9,0,0,0-.3.065c-2.6.938-5.256,1.881-7.821,2.794l-2.218.789c-.1.037-.2.082-.339.145Zm3.092-2.134a.551.551,0,0,1-.392-.117C10.705,24.533,9.53,23,8.286,21.384l-.992-1.29-.062-.08h.1l1.577,0c.611,0,1.334,0,2.057.021.165,0,.322.215.449.385l.01.014c.347.472.7.954,1.034,1.42.534.736,1.086,1.5,1.641,2.238.245.326.392.453.526.453s.289-.133.545-.473c1.035-1.382,1.859-2.515,2.593-3.565a.984.984,0,0,1,.9-.506h.022c1.129.015,2.052.022,2.9.022.964,0,1.839-.009,2.673-.028h.06c.5,0,.858.124.984.731a2.989,2.989,0,0,0,.167.488c.035.087.072.178.109.279l.018.048-.048.017-1.895.672-2.753.977-1.759.626c-2.127.757-4.326,1.541-6.492,2.3A1.139,1.139,0,0,1,12.307,26.18ZM7.435,20.114l.93,1.21c1.244,1.619,2.419,3.148,3.627,4.677a.458.458,0,0,0,.314.079,1.052,1.052,0,0,0,.316-.045c2.165-.756,4.364-1.539,6.491-2.3l1.759-.626,2.753-.977,1.847-.655c-.031-.081-.061-.156-.091-.229a3.058,3.058,0,0,1-.172-.505c-.1-.475-.339-.652-.886-.652h-.058c-.835.019-1.71.028-2.675.028-.852,0-1.775-.007-2.9-.022h-.021a.887.887,0,0,0-.815.464c-.735,1.051-1.559,2.185-2.595,3.568-.238.316-.426.512-.625.513s-.378-.189-.606-.493c-.555-.741-1.107-1.5-1.641-2.24-.338-.466-.687-.948-1.034-1.419l-.01-.014c-.1-.136-.255-.343-.371-.345-.722-.019-1.444-.021-2.055-.021Zm7.134,3.4-.034-.046a57.318,57.318,0,0,1-4.228-6.353A23.858,23.858,0,0,1,7.644,10C7.015,6.691,7.93,4.1,10.363,2.306a7.042,7.042,0,0,1,4.216-1.5,7.2,7.2,0,0,1,3.612,1.038,6.99,6.99,0,0,1,2.9,3.024,7.907,7.907,0,0,1,.645,4.171,17.734,17.734,0,0,1-1.634,5.7,40.6,40.6,0,0,1-5.5,8.728Zm.01-22.6a6.944,6.944,0,0,0-4.157,1.479c-2.4,1.772-3.3,4.327-2.68,7.593.978,5.147,3.91,9.432,6.838,13.379A40.92,40.92,0,0,0,20.015,14.7a17.639,17.639,0,0,0,1.626-5.671,6.861,6.861,0,0,0-3.5-7.1A7.1,7.1,0,0,0,14.579.908Z" transform="translate(0.089 0.09)"/>
      <path id="패스_530" data-name="패스 530" d="M7.58,1.612a3.631,3.631,0,1,1-3.6,3.656,3.631,3.631,0,0,1,3.6-3.656m.111.867a2.764,2.764,0,1,0,2.68,2.842,2.758,2.758,0,0,0-2.68-2.842" transform="translate(7.109 2.88)" fill="#eee"/>
      <path id="패스_531" data-name="패스 531" d="M7.58,1.612a3.631,3.631,0,1,1-3.6,3.656A3.631,3.631,0,0,1,7.58,1.612Zm.111.867a2.764,2.764,0,1,0,2.68,2.842A2.758,2.758,0,0,0,7.691,2.479Z" transform="translate(7.109 2.88)" fill="#eee"/>
      <path id="패스_531_-_윤곽선" data-name="패스 531 - 윤곽선" d="M7.621,1.562a3.694,3.694,0,0,1,3.667,3.647A3.622,3.622,0,0,1,10.239,7.8a3.665,3.665,0,0,1-2.6,1.121H7.6A3.7,3.7,0,0,1,3.93,5.268,3.619,3.619,0,0,1,4.973,2.679,3.677,3.677,0,0,1,7.579,1.562ZM7.6,8.823h.035a3.566,3.566,0,0,0,2.53-1.091A3.522,3.522,0,0,0,11.188,5.21,3.593,3.593,0,0,0,7.621,1.662h-.04A3.578,3.578,0,0,0,5.044,2.749,3.52,3.52,0,0,0,4.03,5.267,3.6,3.6,0,0,0,7.6,8.823Zm-.009-6.4.1,0a2.824,2.824,0,0,1,1.984.9,2.757,2.757,0,0,1,.745,1.993A2.814,2.814,0,1,1,4.8,5.154,2.8,2.8,0,0,1,7.594,2.427Zm.05,5.529a2.735,2.735,0,0,0,2.677-2.638A2.658,2.658,0,0,0,9.6,3.4,2.715,2.715,0,1,0,7.529,7.954Z" transform="translate(7.109 2.88)"/>
    </g>
  </g>
</svg>
