<svg xmlns="http://www.w3.org/2000/svg" xmlns:xlink="http://www.w3.org/1999/xlink" width="17.843" height="18" viewBox="0 0 17.843 18">
  <defs>
    <clipPath id="clip-path">
      <rect id="사각형_37" data-name="사각형 37" width="17.843" height="18" fill="#fff"/>
    </clipPath>
  </defs>
  <g id="그룹_3214" data-name="그룹 3214" transform="translate(-641.886 -1047.5)">
    <g id="구성_요소_24_6" data-name="구성 요소 24 – 6" transform="translate(641.886 1047.5)">
      <g id="그룹_1493" data-name="그룹 1493" clip-path="url(#clip-path)">
        <path id="패스_495" data-name="패스 495" d="M14.272,15.079c0,.794,0,1.589,0,2.383,0,.5-.036.536-.536.536H.54C.025,18,0,17.975,0,17.471Q0,9.005,0,.54C0,.023.022,0,.529,0,3.6,0,6.668,0,9.737.008a1.124,1.124,0,0,1,.6.181q1.867,1.281,3.706,2.6a.668.668,0,0,1,.238.469c.022,2.005.021,4.011.026,6.017a4.038,4.038,0,0,1-.584,2.047l.668.555c.027.022.07.062.088.054.442-.193.6.2.823.417q1.106,1.072,2.18,2.178a1.2,1.2,0,0,1,.2,1.469,1.281,1.281,0,0,1-1.429.683,1.677,1.677,0,0,1-.637-.385c-.432-.4-.835-.835-1.249-1.255l-.09.038M13.7,17.414c0-.915-.011-1.795.006-2.674a.755.755,0,0,0-.265-.632c-.166-.151-.443-.377-.413-.511.09-.4-.224-.512-.387-.734s-.318-.23-.574-.107a3.914,3.914,0,1,1,1.135-6.219c.155.162.3.337.471.535v-3.7H10.285c-.557,0-.573-.017-.573-.564,0-.734,0-1.468,0-2.213H.592V17.414ZM7.032,9.271A3.363,3.363,0,1,0,10.4,5.895,3.364,3.364,0,0,0,7.032,9.271m6.677,4.3c.777.773,1.535,1.534,2.3,2.288a.714.714,0,1,0,1.013-1c-.524-.535-1.063-1.055-1.585-1.593-.233-.241-.439-.508-.652-.757l-1.075,1.064M10.3,2.794h2.783L10.3.835Zm3.758,9.592-.645-.59-.517.492.608.624.554-.527" transform="translate(0 0)" fill="#fff"/>
        <path id="패스_496" data-name="패스 496" d="M8.24,2.986H2.122a.278.278,0,0,1,0-.556H8.24a.278.278,0,0,1,0,.556" transform="translate(-0.37 -0.487)" fill="#fff"/>
        <path id="패스_497" data-name="패스 497" d="M8.24,5.769H2.122a.278.278,0,0,1,0-.556H8.24a.278.278,0,0,1,0,.556" transform="translate(-0.37 -1.045)" fill="#fff"/>
        <path id="패스_498" data-name="패스 498" d="M5.428,8.552H2.122a.278.278,0,0,1,0-.556H5.428a.278.278,0,0,1,0,.556" transform="translate(-0.37 -1.603)" fill="#fff"/>
        <path id="패스_499" data-name="패스 499" d="M5.428,11.335H2.122a.278.278,0,0,1,0-.556H5.428a.278.278,0,0,1,0,.556" transform="translate(-0.37 -2.161)" fill="#fff"/>
        <path id="패스_500" data-name="패스 500" d="M5.428,14.118H2.122a.278.278,0,0,1,0-.556H5.428a.278.278,0,0,1,0,.556" transform="translate(-0.37 -2.719)" fill="#fff"/>
        <path id="패스_501" data-name="패스 501" d="M9.037,16.9H2.1a.254.254,0,0,1-.253-.253V16.6a.254.254,0,0,1,.253-.254H9.037a.254.254,0,0,1,.253.254v.048a.254.254,0,0,1-.253.253" transform="translate(-0.37 -3.277)" fill="#fff"/>
        <path id="패스_502" data-name="패스 502" d="M10.488,19.683H2.122a.278.278,0,0,1,0-.556h8.365a.278.278,0,0,1,0,.556" transform="translate(-0.37 -3.835)" fill="#fff"/>
      </g>
    </g>
  </g>
</svg>
