<svg id="그룹_2698" data-name="그룹 2698" xmlns="http://www.w3.org/2000/svg" xmlns:xlink="http://www.w3.org/1999/xlink" width="21.715" height="30" viewBox="0 0 21.715 30">
  <defs>
    <clipPath id="clip-path">
      <rect id="사각형_3705" data-name="사각형 3705" width="21.715" height="30" fill="#eee"/>
    </clipPath>
  </defs>
  <g id="그룹_2698-2" data-name="그룹 2698" clip-path="url(#clip-path)">
    <path id="패스_1389" data-name="패스 1389" d="M.018,30C.012,29.893,0,29.786,0,29.68Q0,15.023,0,.367V0H.325Q8.569,0,16.814,0a.49.49,0,0,1,.442.2c1.433,1.84,2.878,3.671,4.31,5.511a.736.736,0,0,1,.143.422q.011,11.816.006,23.631c0,.078-.011.155-.017.233Zm20.553-1.14V6.834H16.265V1.151H1.153V28.86ZM17.385,2.2V5.722h2.762L17.385,2.2" transform="translate(0 0)" fill="#eee"/>
    <path id="패스_1390" data-name="패스 1390" d="M47.436,111.44c-.342.358-.7.74-1.069,1.118a.6.6,0,0,1-1.02-.007q-.85-.889-1.7-1.78a.589.589,0,0,1,0-.962c.308-.327.6-.668.933-.971.275-.252,0-.437-.032-.65-.025-.186-.171-.174-.311-.173-.459,0-.918.005-1.377,0a.566.566,0,0,1-.631-.636q-.009-1.259,0-2.518a.575.575,0,0,1,.633-.641c.488-.008.976-.01,1.464,0,.168,0,.261-.055.291-.212.034-.178.264-.327.036-.544-.339-.322-.654-.671-.974-1.013a.577.577,0,0,1,0-.92q.825-.872,1.657-1.738a.6.6,0,0,1,.984.008c.313.322.62.649.932.973.1.1.164.227.359.137a.373.373,0,0,0,.275-.405c-.02-.468-.009-.937-.005-1.405s.2-.675.678-.678q1.215-.007,2.431,0c.491,0,.684.2.689.7,0,.449.013.9,0,1.347a.336.336,0,0,0,.263.38.321.321,0,0,0,.428-.088c.234-.274.491-.53.744-.787a.582.582,0,0,1,.94,0q.855.884,1.7,1.78a.565.565,0,0,1,.008.858c-.236.261-.478.515-.73.76-.123.12-.162.225-.063.376a.834.834,0,0,1,.1.241.271.271,0,0,0,.319.22c.419-.013.84-.008,1.259,0,.466.006.677.217.679.688q.006,1.215,0,2.43c0,.49-.2.682-.7.685-.39,0-.781.008-1.171,0-.169,0-.239.06-.328.207a.743.743,0,0,0,.227,1.1,4.564,4.564,0,0,1,.569.588.544.544,0,0,1,0,.812q-.87.931-1.76,1.842a.566.566,0,0,1-.878-.007c-.317-.318-.631-.64-.929-.975a.274.274,0,0,0-.381-.062c-.149.071-.3.1-.292.331.021.389.009.781,0,1.171-.006.494-.2.7-.692.7q-1.215.007-2.431,0c-.478,0-.672-.2-.677-.681,0-.342-.024-.685.006-1.024s-.062-.548-.457-.581m-1.6-.131c.325-.29.693-.61,1.051-.94a.606.606,0,0,1,.771-.125c.273.128.548.255.83.361a.639.639,0,0,1,.521.736c0,.407,0,.814,0,1.23h1.541c0-.435,0-.853,0-1.27a.606.606,0,0,1,.48-.647c.3-.107.6-.219.9-.354a.631.631,0,0,1,.906.162c.3.307.589.616.893.935l1.023-1.076c-.31-.326-.614-.641-.912-.96a.607.607,0,0,1-.1-.8,11.9,11.9,0,0,0,.461-1.1c.155-.445.29-.563.759-.565.406,0,.812,0,1.225,0v-1.548c-.457,0-.895,0-1.332,0a.613.613,0,0,1-.67-.49c-.135-.354-.286-.7-.449-1.045a.608.608,0,0,1,.105-.8c.251-.27.508-.535.775-.816l-1.02-1.078c-.3.313-.565.6-.836.877a.586.586,0,0,1-.719.136c-.347-.152-.7-.29-1.056-.423a.584.584,0,0,1-.416-.544c-.011-.175,0-.351,0-.527,0-.356,0-.712,0-1.058h-1.54c0,.521,0,1.018,0,1.515a.608.608,0,0,1-.485.671,7.9,7.9,0,0,0-.754.316c-.477.237-.623.218-1-.176l-.947-.991-1.022,1.076c.356.374.7.736,1.041,1.094a.6.6,0,0,1,.124.723c-.166.373-.326.749-.477,1.128a.589.589,0,0,1-.58.409c-.322.006-.644,0-.967,0h-.569v1.545c.491,0,.959,0,1.427,0a.611.611,0,0,1,.68.512,7.607,7.607,0,0,0,.3.822c.283.622.281.671-.2,1.174l-.878.919,1.125.986" transform="translate(-38.923 -90.718)" fill="#eee"/>
    <path id="패스_1391" data-name="패스 1391" d="M102.893,164.132a2.977,2.977,0,1,1,2.974-2.953,2.991,2.991,0,0,1-2.974,2.953m0-4.819a1.844,1.844,0,1,0,1.841,1.828,1.807,1.807,0,0,0-1.841-1.828" transform="translate(-92.091 -145.799)" fill="#eee"/>
  </g>
</svg>
