<svg id="그룹_1662" data-name="그룹 1662" xmlns="http://www.w3.org/2000/svg" xmlns:xlink="http://www.w3.org/1999/xlink" width="34.749" height="34.736" viewBox="0 0 34.749 34.736">
  <defs>
    <clipPath id="clip-path">
      <rect id="사각형_120" data-name="사각형 120" width="34.749" height="34.736" fill="#eee"/>
    </clipPath>
  </defs>
  <g id="그룹_1661" data-name="그룹 1661" transform="translate(0 0)" clip-path="url(#clip-path)">
    <path id="패스_825" data-name="패스 825" d="M19.167,14.625c.455.029.839.024,1.213.081a4.582,4.582,0,0,1,3.99,4.653c.027,1.943-.011,3.888.024,5.831a2.478,2.478,0,0,0,1.763,2.327,2.427,2.427,0,0,0,2.729-.849,2.841,2.841,0,0,0,.551-1.481c.046-3.931.034-7.864.011-11.8a.756.756,0,0,0-.4-.555,4.256,4.256,0,0,1-2.8-4.163c-.011-.7,0-1.4,0-2.1,0-1.088.171-1.3,1.3-1.545,0-.439-.013-.906,0-1.371a1.02,1.02,0,0,1,1.021-1.109,1.006,1.006,0,0,1,1.01,1.111c.013.451,0,.9,0,1.4h1.855c0-.5-.014-.97,0-1.437a.976.976,0,0,1,.976-1.069,1,1,0,0,1,1.045,1.016c.034.47.006.946.006,1.4,1.246.486,1.262.508,1.262,1.836,0,.7.026,1.4-.006,2.1A4.073,4.073,0,0,1,32.1,12.74a.831.831,0,0,0-.6.938c.018,3.842.027,7.685,0,11.527A4.567,4.567,0,0,1,22.686,26.8a6.107,6.107,0,0,1-.334-1.983c-.045-1.807,0-3.616-.024-5.424a2.563,2.563,0,0,0-3.161-2.619v.781q0,7.829,0,15.661c0,1.253-.265,1.523-1.493,1.523q-8.071,0-16.143,0C.284,34.735,0,34.458,0,33.241V3.139C0,2.106.107,1.932,1.052,1.582A23.9,23.9,0,0,1,18.21,1.6a1.316,1.316,0,0,1,.967,1.424c-.022,3.615-.011,7.231-.01,10.847v.751M17.126,32.673v-.658q0-14,.011-28a.751.751,0,0,0-.615-.86,22.223,22.223,0,0,0-13.863,0,.786.786,0,0,0-.633.911Q2.053,18.03,2.041,32c0,.217.019.436.03.676Zm11.2-25.5c0,.694-.05,1.325.011,1.946a2.1,2.1,0,0,0,1.964,1.9,2.067,2.067,0,0,0,2.29-1.582,15.08,15.08,0,0,0,.141-2.264Z" transform="translate(0 0)" fill="#eee"/>
    <path id="패스_826" data-name="패스 826" d="M8.026,10.953c-1.31,0-2.621,0-3.931,0-1.064,0-1.393-.324-1.4-1.362q-.007-2.438,0-4.877c0-.932.336-1.274,1.266-1.277q4-.012,8,0c.962,0,1.307.352,1.312,1.317q.014,2.44,0,4.879c0,.954-.363,1.31-1.318,1.318-1.31.01-2.621,0-3.931,0M4.786,8.867h6.4V5.519h-6.4Z" transform="translate(1.611 2.052)" fill="#eee"/>
    <path id="패스_827" data-name="패스 827" d="M6.835,15.071c.794,0,1.462-.013,2.132,0,1.115.024,1.523.753.965,1.732Q8.826,18.75,7.7,20.678c-.406.694-.96.892-1.509.566s-.646-.885-.246-1.592c.452-.8.916-1.6,1.457-2.542-.732,0-1.347.006-1.962,0-1.256-.016-1.67-.716-1.066-1.812q.983-1.779,1.978-3.549c.382-.681.954-.911,1.5-.618s.66.9.292,1.585c-.4.748-.821,1.488-1.3,2.357" transform="translate(2.45 6.581)" fill="#eee"/>
  </g>
</svg>
