<svg xmlns="http://www.w3.org/2000/svg" xmlns:xlink="http://www.w3.org/1999/xlink" width="12.186" height="17.748" viewBox="0 0 12.186 17.748">
  <defs>
    <clipPath id="clip-path">
      <rect id="사각형_30" data-name="사각형 30" width="12.186" height="17.748" fill="#eee"/>
    </clipPath>
  </defs>
  <g id="그룹_1575" data-name="그룹 1575" transform="translate(0 0)">
    <g id="그룹_1477" data-name="그룹 1477" transform="translate(0 0)" clip-path="url(#clip-path)">
      <path id="패스_474" data-name="패스 474" d="M6.093,13.08c-.1.1-.2.182-.284.269q-1.924,1.923-3.85,3.843a2.385,2.385,0,0,1-.573.437A.865.865,0,0,1,.108,17.1a2.308,2.308,0,0,1-.1-.714Q0,9.218,0,2.047A1.92,1.92,0,0,1,2.037,0Q6.09,0,10.143,0a1.919,1.919,0,0,1,2.04,2.04q0,7.189,0,14.377c0,.034,0,.069,0,.1-.027.479-.115.938-.616,1.148a1.087,1.087,0,0,1-1.242-.376c-1.32-1.309-2.632-2.628-3.947-3.942-.088-.088-.181-.172-.286-.272M1.041,16.523l.151.118a1.489,1.489,0,0,1,.191-.329q2.088-2.1,4.186-4.191c.413-.413.634-.414,1.042-.006l4.214,4.212c.083.083.173.16.3.28.007-.145.013-.212.013-.278q0-7.153,0-14.307a.887.887,0,0,0-.992-.978q-3.985,0-7.968,0c-.845,0-1.14.3-1.14,1.145V16.523" transform="translate(0 0)" fill="#eee"/>
    </g>
  </g>
</svg>
