<svg xmlns="http://www.w3.org/2000/svg" xmlns:xlink="http://www.w3.org/1999/xlink" width="40" height="40" viewBox="0 0 40 40">
  <defs>
    <clipPath id="clip-path">
      <rect id="사각형_3739" data-name="사각형 3739" width="19.49" height="24" fill="#eee"/>
    </clipPath>
  </defs>
  <g id="그룹_2996" data-name="그룹 2996" transform="translate(-1170 -164)">
    <rect id="사각형_3738" data-name="사각형 3738" width="40" height="40" rx="6" transform="translate(1170 164)" fill="#00ffff"/>
    <g id="그룹_2732" data-name="그룹 2732" transform="translate(1180 172)">
      <g id="그룹_2735" data-name="그룹 2735" clip-path="url(#clip-path)">
        <path id="패스_1396" data-name="패스 1396" d="M4.081,24c-.156-.043-.313-.081-.468-.129A2.93,2.93,0,0,1,1.6,21.176c-.006-.132-.006-.265-.006-.4Q1.6,14.1,1.6,7.426a.336.336,0,0,0-.265-.378A2.136,2.136,0,0,1,.017,4.821a2.1,2.1,0,0,1,1.9-1.86c.958-.046,1.92-.027,2.88-.037h.207c.014-.31.021-.611.044-.911a2.183,2.183,0,0,1,2.181-2C8.908,0,10.588-.01,12.266.016a2.2,2.2,0,0,1,2.2,2.306c0,.187,0,.374,0,.591.092,0,.174.011.256.011.836,0,1.671-.008,2.507,0a2.142,2.142,0,0,1,.935,4.115.356.356,0,0,0-.274.4q.011,6.7.006,13.4a3.147,3.147,0,0,1-.951,2.408,2.714,2.714,0,0,1-1.4.707.8.8,0,0,0-.126.046ZM2.722,7.213v.246q0,6.7,0,13.4a3.223,3.223,0,0,0,.039.513,1.711,1.711,0,0,0,1.685,1.5q5.3.012,10.591,0a1.615,1.615,0,0,0,1.373-.722,2.173,2.173,0,0,0,.362-1.307q0-6.688,0-13.377c0-.082-.007-.165-.011-.254Zm7.03-1.137h7.355a3.324,3.324,0,0,0,.351-.015.986.986,0,0,0,.887-1.071c-.049-.593-.481-.939-1.179-.939H2.338a2.336,2.336,0,0,0-.35.024,1,1,0,0,0-.1,1.959,2.108,2.108,0,0,0,.488.04q3.689,0,7.379,0m3.574-3.162a7.654,7.654,0,0,0-.006-.84,1,1,0,0,0-.777-.894,1.249,1.249,0,0,0-.346-.045q-2.449,0-4.9,0A1.046,1.046,0,0,0,6.184,2a5.9,5.9,0,0,0-.008.914Z" transform="translate(0 0)" fill="#eee"/>
        <path id="패스_1397" data-name="패스 1397" d="M105.743,161.233c0,1.725,0,3.45,0,5.174a1.036,1.036,0,0,1-.11.466.474.474,0,0,1-.521.233.511.511,0,0,1-.449-.389,1.074,1.074,0,0,1-.038-.276q0-5.186,0-10.372a.921.921,0,0,1,.076-.384.548.548,0,0,1,1.01.1,1.3,1.3,0,0,1,.033.347q0,2.552,0,5.1" transform="translate(-98.753 -146.678)" fill="#eee"/>
        <path id="패스_1398" data-name="패스 1398" d="M163.824,161.249q0-2.587,0-5.174c0-.406.177-.642.5-.674a.528.528,0,0,1,.6.433,1.281,1.281,0,0,1,.028.278q0,5.139,0,10.278a1.341,1.341,0,0,1-.031.3.547.547,0,0,1-.539.431.553.553,0,0,1-.532-.443,1.491,1.491,0,0,1-.02-.3q0-2.564,0-5.128" transform="translate(-154.638 -146.684)" fill="#eee"/>
        <path id="패스_1399" data-name="패스 1399" d="M222.98,161.206q0-2.564,0-5.127c0-.485.188-.74.548-.746s.576.261.576.748q0,5.116,0,10.231c0,.486-.212.759-.578.749s-.546-.264-.547-.751q0-2.552,0-5.1" transform="translate(-210.478 -146.623)" fill="#eee"/>
      </g>
    </g>
  </g>
</svg>
