<svg xmlns="http://www.w3.org/2000/svg" xmlns:xlink="http://www.w3.org/1999/xlink" width="28.072" height="32" viewBox="0 0 28.072 32">
  <defs>
    <clipPath id="clip-path">
      <rect id="사각형_3610" data-name="사각형 3610" width="28.072" height="32" fill="#eee"/>
    </clipPath>
  </defs>
  <g id="그룹_2656" data-name="그룹 2656" clip-path="url(#clip-path)">
    <path id="패스_1378" data-name="패스 1378" d="M18.861,27.825a4.925,4.925,0,0,1-2,3.265,4.859,4.859,0,0,1-6-.268,4.92,4.92,0,0,1-1.663-3H8.787c-2.217,0-4.434.006-6.652,0A2.062,2.062,0,0,1,0,25.587,2.037,2.037,0,0,1,.64,24.232l1.475-1.476a4.872,4.872,0,0,0,1.477-3.573q0-2.2,0-4.4A10.419,10.419,0,0,1,11.622,4.453c.031-.008.061-.021.13-.044a2.839,2.839,0,0,1-.336-2.575A2.705,2.705,0,0,1,12.509.454a2.777,2.777,0,0,1,3.307.2c1.07.9,1.237,2.1.53,3.718a21.158,21.158,0,0,1,2.142.818A10.23,10.23,0,0,1,24.454,14.5c.059,1.552.014,3.108.01,4.663a4.89,4.89,0,0,0,1.506,3.626q.719.711,1.429,1.43a2.092,2.092,0,0,1-1.517,3.612q-3.293,0-6.586,0h-.434m-4.843-1.386q5.869,0,11.737,0c.373,0,.7-.056.859-.442a.761.761,0,0,0-.288-.892c-.436-.425-.86-.862-1.293-1.289a6.286,6.286,0,0,1-1.958-4.7c.012-1.446.024-2.892-.007-4.337a10.569,10.569,0,0,0-.212-2.069A9.025,9.025,0,0,0,5.033,13.88c-.089,1.724-.06,3.455-.049,5.183a6.377,6.377,0,0,1-1.992,4.79c-.466.456-.929.915-1.382,1.385A.661.661,0,0,0,1.693,26.3a1.215,1.215,0,0,0,.588.13q5.869.011,11.737.005m-3.354,1.4a3.428,3.428,0,0,0,6.73,0ZM15.412,2.777a1.384,1.384,0,1,0-1.38,1.4,1.383,1.383,0,0,0,1.38-1.4" transform="translate(0 0)" fill="#eee"/>
  </g>
</svg>
