<svg xmlns="http://www.w3.org/2000/svg" width="17.958" height="11.328" viewBox="0 0 17.958 11.328">
  <g id="그룹_3210" data-name="그룹 3210" transform="translate(-275.673 -258.934)">
    <path id="패스_1520" data-name="패스 1520" d="M284.624,262.326a2.28,2.28,0,1,1-2.28,2.28,2.283,2.283,0,0,1,2.28-2.28m0-1.1a3.38,3.38,0,1,0,3.381,3.38,3.38,3.38,0,0,0-3.381-3.38Z" fill="#ebeae9"/>
    <path id="패스_1521" data-name="패스 1521" d="M284.624,270.262c-5.1,0-8.245-4.367-8.824-5.243a.765.765,0,0,1,0-.842h0c.579-.876,3.726-5.243,8.824-5.243s8.288,4.363,8.877,5.238a.759.759,0,0,1,0,.851C292.912,265.9,289.719,270.262,284.624,270.262Zm-7.563-5.963a.489.489,0,0,0,0,.6c.99,1.315,3.647,4.266,7.563,4.266s6.6-2.943,7.61-4.263a.49.49,0,0,0,0-.6c-1.009-1.321-3.7-4.263-7.61-4.263S278.052,262.982,277.061,264.3Z" fill="#ebeae9"/>
  </g>
</svg>
