<svg xmlns="http://www.w3.org/2000/svg" xmlns:xlink="http://www.w3.org/1999/xlink" width="46" height="46" viewBox="0 0 46 46">
  <defs>
    <clipPath id="clip-path">
      <rect id="사각형_12" data-name="사각형 12" width="46" height="46" fill="#76747c"/>
    </clipPath>
  </defs>
  <g id="그룹_1529" data-name="그룹 1529" style="isolation: isolate">
    <g id="그룹_1448" data-name="그룹 1448" transform="translate(0)" clip-path="url(#clip-path)">
      <path id="패스_465" data-name="패스 465" d="M4.474,21.676c-.776,0-1.44.031-2.1-.006A2.309,2.309,0,0,1,.013,19.11c-.021-1.141-.012-2.284,0-3.426C.027,13.894.853,13,2.546,12.935c.594-.022,1.19,0,1.929,0,0-1.73.078-3.337-.014-4.935A7.35,7.35,0,0,1,12.006,0c7.8.161,15.614.044,23.42.048,4.612,0,7.452,2.963,7.468,7.775,0,1.646,0,3.293,0,5.113.779,0,1.444-.033,2.1.006a2.334,2.334,0,0,1,2.359,2.571c.021,1.141.014,2.284,0,3.426-.018,1.8-.829,2.675-2.54,2.74-.591.02-1.183,0-1.925,0v1.391c0,3.979-.037,7.956.014,11.933.032,2.54-.934,4.3-3.217,5.253a1.141,1.141,0,0,0-.524.84c-.063,1.138-.012,2.283-.032,3.424-.034,1.946-.869,2.819-2.688,2.838-1.014.009-2.027.017-3.041,0a2.369,2.369,0,0,1-2.5-2.664c-.019-1.369-.005-2.736-.005-4.162H16.7c0,1.317.005,2.64,0,3.962-.009,1.994-.839,2.854-2.759,2.867-.938.006-1.877.009-2.815,0-1.768-.02-2.6-.882-2.637-2.756-.023-1.1-.028-2.207,0-3.309a.924.924,0,0,0-.749-1.073,4.616,4.616,0,0,1-3.258-4.693c-.028-4.134-.009-8.27-.011-12.4V21.676m19.209,7.553c4.016,0,8.034.007,12.049,0,2.327-.006,3.387-1.1,3.394-3.526q.021-7.8,0-15.6c-.007-2.427-1.074-3.539-3.392-3.542q-12.05-.014-24.1,0c-2.32,0-3.387,1.114-3.392,3.54q-.021,7.8,0,15.6c.007,2.431,1.063,3.522,3.392,3.528,4.016.009,8.034,0,12.049,0M11.14,36.786a3.033,3.033,0,0,0,.032-6.058,3.032,3.032,0,0,0-.032,6.058m27.974-3A2.935,2.935,0,0,0,36.3,30.732a3.031,3.031,0,0,0-.175,6.052,2.935,2.935,0,0,0,2.988-3" transform="translate(-0.478 -0.74)" fill="#76747c"/>
    </g>
  </g>
</svg>
