<svg id="ic_setting" xmlns="http://www.w3.org/2000/svg" width="27.802" height="27.802" viewBox="0 0 27.802 27.802">
  <path id="패스_386" data-name="패스 386" d="M0,0H27.8V27.8H0Z" fill="none"/>
  <path id="패스_387" data-name="패스 387" d="M13.426,2a2.952,2.952,0,0,1,2.912,2.29,1,1,0,0,0,1.488.617,2.97,2.97,0,0,1,4.189,1.112,2.943,2.943,0,0,1-.069,3.007,1,1,0,0,0,.616,1.488,3,3,0,0,1,0,5.824,1,1,0,0,0-.617,1.488,2.943,2.943,0,0,1,.069,3.007,2.971,2.971,0,0,1-4.189,1.113,1,1,0,0,0-1.488.616,3,3,0,0,1-5.824,0,1,1,0,0,0-1.488-.617,2.97,2.97,0,0,1-4.189-1.112,2.943,2.943,0,0,1,.069-3.007,1,1,0,0,0-.616-1.488,3,3,0,0,1,0-5.824,1,1,0,0,0,.617-1.488,2.943,2.943,0,0,1-.069-3.007A2.971,2.971,0,0,1,9.026,4.905a.976.976,0,0,0,.515.148,1,1,0,0,0,.972-.763A2.952,2.952,0,0,1,13.426,2Zm3.881,5.052a3,3,0,0,1-2.913-2.291,1,1,0,0,0-1.937,0A2.994,2.994,0,0,1,7.985,6.613a1,1,0,0,0-.524-.158A1.04,1.04,0,0,0,6.581,7a.929.929,0,0,0,.034.987,3,3,0,0,1-1.853,4.473,1,1,0,0,0,0,1.937,3,3,0,0,1,1.852,4.471.929.929,0,0,0-.033.987,1.04,1.04,0,0,0,.88.543,1,1,0,0,0,.525-.159,3,3,0,0,1,4.473,1.853,1,1,0,0,0,1.937,0,3,3,0,0,1,4.471-1.852,1,1,0,0,0,.525.159,1.04,1.04,0,0,0,.88-.543.929.929,0,0,0-.034-.987,3,3,0,0,1,1.853-4.473,1,1,0,0,0,0-1.937,3,3,0,0,1-1.852-4.471A.929.929,0,0,0,20.271,7a1.039,1.039,0,0,0-.88-.543,1,1,0,0,0-.525.159A3,3,0,0,1,17.307,7.052Z" transform="translate(0.475 0.475)" fill="#76747c"/>
  <path id="타원_2" data-name="타원 2" d="M3.5-1A4.5,4.5,0,1,1-1,3.5,4.505,4.505,0,0,1,3.5-1Zm0,7A2.5,2.5,0,1,0,1,3.5,2.5,2.5,0,0,0,3.5,6Z" transform="translate(10.294 10.294)" fill="#76747c"/>
</svg>
