<svg xmlns="http://www.w3.org/2000/svg" xmlns:xlink="http://www.w3.org/1999/xlink" width="40" height="40" viewBox="0 0 40 40">
  <defs>
    <clipPath id="clip-path">
      <rect id="사각형_3737" data-name="사각형 3737" width="24" height="23.876" fill="#eee"/>
    </clipPath>
  </defs>
  <g id="그룹_2995" data-name="그룹 2995" transform="translate(-1125 -164)">
    <rect id="사각형_3737-2" data-name="사각형 3737" width="40" height="40" rx="6" transform="translate(1125 164)" fill="#00ffff"/>
    <g id="그룹_2731" data-name="그룹 2731" transform="translate(1133 172)">
      <g id="그룹_2732" data-name="그룹 2732">
        <g id="그룹_2731-2" data-name="그룹 2731" clip-path="url(#clip-path)">
          <path id="패스_1394" data-name="패스 1394" d="M0,41.392a6.545,6.545,0,0,1,.4-1.115,2.862,2.862,0,0,1,2.617-1.524c1.734-.012,3.468,0,5.2,0a.611.611,0,0,1,.678.59.622.622,0,0,1-.693.6c-1.7,0-3.405,0-5.108,0a1.781,1.781,0,0,0-1.834,1.369,2.182,2.182,0,0,0-.06.556q0,7.65,0,15.3a1.776,1.776,0,0,0,1.331,1.861,2.28,2.28,0,0,0,.6.074q8.248.006,16.5,0a1.819,1.819,0,0,0,1.93-1.942q0-2.542,0-5.085a.618.618,0,0,1,.455-.653.592.592,0,0,1,.727.564c.012.476.006.953,0,1.429,0,1.351.016,2.7-.013,4.053a2.95,2.95,0,0,1-2.8,2.814c-.109,0-.219.009-.328.009q-8.236,0-16.472,0A2.934,2.934,0,0,1,.4,58.77,6.448,6.448,0,0,1,0,57.656V41.392" transform="translate(0 -36.421)" fill="#eee"/>
          <path id="패스_1395" data-name="패스 1395" d="M122.065,0a2.633,2.633,0,0,1,1.777.692c.277.253.54.52.8.79a2.678,2.678,0,0,1,.054,3.761c-.063.069-.129.136-.2.2q-5.169,5.17-10.336,10.341a1.458,1.458,0,0,1-.675.392c-1.557.424-3.111.859-4.666,1.292a.747.747,0,0,1-.612-.018.6.6,0,0,1-.264-.729c.367-1.339.773-2.668,1.094-4.017a4.035,4.035,0,0,1,1.174-2.008c3.29-3.249,6.551-6.528,9.816-9.8a2.827,2.827,0,0,1,2.033-.9M119.53,3.191l-8.665,8.665,2.718,2.718,8.667-8.667L119.53,3.191m.83-.977L123.2,5.062c.245-.26.52-.516.752-.806a1.429,1.429,0,0,0-.013-1.74,7.85,7.85,0,0,0-1.006-1.007,1.292,1.292,0,0,0-1.531-.144,8.049,8.049,0,0,0-1.047.849M110.215,13l-.851,3.076,3.073-.853L110.215,13" transform="translate(-101.441)" fill="#eee"/>
        </g>
      </g>
    </g>
  </g>
</svg>
