<svg xmlns="http://www.w3.org/2000/svg" xmlns:xlink="http://www.w3.org/1999/xlink" width="109.005" height="107.243" viewBox="0 0 109.005 107.243">
  <defs>
    <clipPath id="clip-path">
      <rect id="사각형_3739" data-name="사각형 3739" width="72.398" height="89.152" fill="#eee"/>
    </clipPath>
    <linearGradient id="linear-gradient" x1="-0.019" y1="-4.055" x2="0.981" y2="-4.055" gradientUnits="objectBoundingBox">
      <stop offset="0" stop-color="#ff575c"/>
      <stop offset="1" stop-color="#e30d5f"/>
    </linearGradient>
  </defs>
  <g id="그룹_3217" data-name="그룹 3217" transform="translate(-630.801 -234.257)">
    <g id="그룹_2762" data-name="그룹 2762" transform="translate(630.801 234.257)">
      <g id="그룹_2735" data-name="그룹 2735" clip-path="url(#clip-path)">
        <path id="패스_1396" data-name="패스 1396" d="M15.158,89.152c-.579-.159-1.164-.3-1.737-.478a10.886,10.886,0,0,1-7.467-10.01c-.023-.492-.022-.986-.022-1.479q0-24.8.022-49.6a1.25,1.25,0,0,0-.984-1.4A7.935,7.935,0,0,1,.063,17.91,7.8,7.8,0,0,1,7.125,11c3.56-.169,7.131-.1,10.7-.136.231,0,.462,0,.771,0,.054-1.153.079-2.271.162-3.385a8.11,8.11,0,0,1,8.1-7.437C33.092,0,39.33-.038,45.566.059c4.806.075,8.083,3.61,8.18,8.566.014.695,0,1.39,0,2.2.343.016.647.042.951.042,3.1,0,6.208-.029,9.312.01a7.958,7.958,0,0,1,3.474,15.284,1.321,1.321,0,0,0-1.018,1.476q.042,24.886.023,49.772a11.69,11.69,0,0,1-3.532,8.947,10.081,10.081,0,0,1-5.2,2.628,2.967,2.967,0,0,0-.468.17ZM10.109,26.794v.916q0,24.889.006,49.778a11.97,11.97,0,0,0,.146,1.9,6.355,6.355,0,0,0,6.258,5.569q19.671.046,39.342,0a6,6,0,0,0,5.1-2.682,8.073,8.073,0,0,0,1.345-4.857q.007-24.845,0-49.691c0-.306-.027-.612-.042-.942ZM36.224,22.57q13.661,0,27.322,0a12.346,12.346,0,0,0,1.3-.057,3.665,3.665,0,0,0,3.294-3.978c-.182-2.2-1.787-3.487-4.379-3.487q-27.539,0-55.079,0a8.677,8.677,0,0,0-1.3.091A3.72,3.72,0,0,0,7,22.416a7.829,7.829,0,0,0,1.813.148q13.7.013,27.409.006M49.5,10.823A28.43,28.43,0,0,0,49.479,7.7,3.727,3.727,0,0,0,46.593,4.38a4.639,4.639,0,0,0-1.285-.167q-9.1-.015-18.191,0a3.886,3.886,0,0,0-4.145,3.218,21.918,21.918,0,0,0-.031,3.4Z" transform="translate(0 0)" fill="#eee"/>
        <path id="패스_1397" data-name="패스 1397" d="M108.794,177.093c0,6.407.01,12.814-.017,19.221a3.849,3.849,0,0,1-.409,1.73,1.761,1.761,0,0,1-1.936.864,1.9,1.9,0,0,1-1.666-1.444,3.988,3.988,0,0,1-.141-1.027q-.011-19.265.006-38.53a3.421,3.421,0,0,1,.283-1.426,2.035,2.035,0,0,1,3.752.361,4.815,4.815,0,0,1,.124,1.289q.011,9.48,0,18.96" transform="translate(-82.829 -123.025)" fill="#eee"/>
        <path id="패스_1398" data-name="패스 1398" d="M163.825,177.134q0-9.61,0-19.221c0-1.509.657-2.384,1.847-2.5a1.962,1.962,0,0,1,2.222,1.61,4.765,4.765,0,0,1,.1,1.032q.007,19.09,0,38.181a4.985,4.985,0,0,1-.116,1.117,2.031,2.031,0,0,1-2,1.6A2.054,2.054,0,0,1,163.9,197.3a5.538,5.538,0,0,1-.076-1.123q-.006-9.524,0-19.047" transform="translate(-129.702 -123.031)" fill="#eee"/>
        <path id="패스_1399" data-name="패스 1399" d="M222.981,177.151q0-9.523,0-19.046c0-1.8.7-2.748,2.037-2.771,1.368-.024,2.141.971,2.141,2.778q0,19,0,38.006c0,1.806-.788,2.819-2.147,2.783-1.337-.036-2.03-.983-2.031-2.789q0-9.48,0-18.959" transform="translate(-176.538 -122.98)" fill="#eee"/>
      </g>
    </g>
    <g id="그룹_3201" data-name="그룹 3201" transform="translate(336.355 222.373)">
      <g id="그룹_3196" data-name="그룹 3196" transform="translate(330.236 41.505)" style="mix-blend-mode: multiply;isolation: isolate">
        <circle id="타원_44" data-name="타원 44" cx="25.886" cy="25.886" r="25.886" transform="translate(0 41.014) rotate(-45)" fill="#fff"/>
        <circle id="타원_45" data-name="타원 45" cx="25.886" cy="25.886" r="25.886" transform="translate(0 40.804) rotate(-45)" fill="#fefefe"/>
        <circle id="타원_46" data-name="타원 46" cx="25.886" cy="25.886" r="25.886" transform="translate(0 40.594) rotate(-45)" fill="#fdfdfd"/>
        <circle id="타원_47" data-name="타원 47" cx="25.886" cy="25.886" r="25.886" transform="translate(10.722 14.499)" fill="#fcfcfc"/>
        <circle id="타원_48" data-name="타원 48" cx="25.886" cy="25.886" r="25.886" transform="translate(10.722 14.289)" fill="#fbfbfb"/>
        <circle id="타원_49" data-name="타원 49" cx="25.886" cy="25.886" r="25.886" transform="translate(10.722 14.079)" fill="#fafafa"/>
        <circle id="타원_50" data-name="타원 50" cx="25.886" cy="25.886" r="25.886" transform="translate(0 39.755) rotate(-45)" fill="#f9f9f9"/>
        <circle id="타원_51" data-name="타원 51" cx="25.886" cy="25.886" r="25.886" transform="translate(0 39.545) rotate(-45)" fill="#f8f8f8"/>
        <circle id="타원_52" data-name="타원 52" cx="25.886" cy="25.886" r="25.886" transform="translate(0 39.335) rotate(-45)" fill="#f7f7f7"/>
        <circle id="타원_53" data-name="타원 53" cx="25.886" cy="25.886" r="25.886" transform="translate(0 39.126) rotate(-45)" fill="#f6f6f6"/>
        <circle id="타원_54" data-name="타원 54" cx="25.886" cy="25.886" r="25.886" transform="translate(10.722 13.03)" fill="#f5f5f5"/>
        <circle id="타원_55" data-name="타원 55" cx="25.886" cy="25.886" r="25.886" transform="translate(10.722 12.82)" fill="#f5f5f5"/>
        <circle id="타원_56" data-name="타원 56" cx="25.886" cy="25.886" r="25.886" transform="translate(0 38.496) rotate(-45)" fill="#f4f4f4"/>
        <circle id="타원_57" data-name="타원 57" cx="25.886" cy="25.886" r="25.886" transform="translate(0 38.286) rotate(-45)" fill="#f3f3f3"/>
        <circle id="타원_58" data-name="타원 58" cx="25.886" cy="25.886" r="25.886" transform="translate(0 38.077) rotate(-45)" fill="#f2f2f2"/>
        <circle id="타원_59" data-name="타원 59" cx="25.886" cy="25.886" r="25.886" transform="translate(0 37.867) rotate(-45)" fill="#f1f1f1"/>
        <circle id="타원_60" data-name="타원 60" cx="25.886" cy="25.886" r="25.886" transform="translate(10.722 11.771)" fill="#f0f0f0"/>
        <circle id="타원_61" data-name="타원 61" cx="25.886" cy="25.886" r="25.886" transform="translate(10.722 11.561)" fill="#efefef"/>
        <circle id="타원_62" data-name="타원 62" cx="25.886" cy="25.886" r="25.886" transform="translate(10.722 11.352)" fill="#eee"/>
        <circle id="타원_63" data-name="타원 63" cx="25.886" cy="25.886" r="25.886" transform="translate(0 37.027) rotate(-45)" fill="#ededed"/>
        <circle id="타원_64" data-name="타원 64" cx="25.886" cy="25.886" r="25.886" transform="translate(0 36.818) rotate(-45)" fill="#ececec"/>
        <circle id="타원_65" data-name="타원 65" cx="25.886" cy="25.886" r="25.886" transform="translate(0 36.608) rotate(-45)" fill="#ebebeb"/>
      </g>
      <circle id="타원_66" data-name="타원 66" cx="25.886" cy="25.886" r="25.886" transform="translate(330.236 78.113) rotate(-45)" fill="#fff"/>
      <g id="그룹_3197" data-name="그룹 3197" transform="translate(345.006 56.277)">
        <circle id="타원_67" data-name="타원 67" cx="21.836" cy="21.836" r="21.836" transform="translate(0 0)" fill="url(#linear-gradient)"/>
      </g>
      <g id="그룹_3200" data-name="그룹 3200" transform="translate(356.399 67.47)">
        <g id="그룹_3198" data-name="그룹 3198" transform="translate(0 0.4)">
          <rect id="사각형_4114" data-name="사각형 4114" width="5.485" height="24.053" transform="translate(0 3.879) rotate(-45)" fill="#fff"/>
        </g>
        <g id="그룹_3199" data-name="그룹 3199" transform="translate(0)">
          <rect id="사각형_4115" data-name="사각형 4115" width="24.053" height="5.485" transform="translate(0 17.008) rotate(-45)" fill="#fff"/>
        </g>
      </g>
    </g>
  </g>
</svg>
